<svg width="412" height="60" viewBox="0 0 412 60" fill="none" xmlns="http://www.w3.org/2000/svg">
<rect x="176" width="60" height="60" rx="10" fill="#432D2D" fill-opacity="0.76"/>
<path d="M209.524 34.12C209.464 34.12 209.404 34.11 209.344 34.09C209.304 34.05 209.304 33.96 209.344 33.82C209.464 33.4 209.594 32.81 209.734 32.05C209.894 31.29 210.044 30.45 210.184 29.53C210.344 28.61 210.494 27.68 210.634 26.74C210.774 25.8 210.884 24.94 210.964 24.16C211.064 23.36 211.124 22.73 211.144 22.27C211.144 22.25 211.144 22.23 211.144 22.21C211.144 22.09 211.134 22.02 211.114 22C211.094 21.96 211.004 21.94 210.844 21.94C210.504 21.94 210.004 21.95 209.344 21.97C208.704 21.99 207.994 22.02 207.214 22.06C206.434 22.08 205.654 22.11 204.874 22.15C204.094 22.19 203.384 22.23 202.744 22.27C202.124 22.31 201.644 22.34 201.304 22.36C200.804 22.4 200.184 22.45 199.444 22.51C198.724 22.55 198.114 22.59 197.614 22.63C197.394 22.67 197.254 22.66 197.194 22.6C197.134 22.54 197.084 22.43 197.044 22.27C197.044 22.25 197.044 22.24 197.044 22.24C196.964 22.02 196.894 21.84 196.834 21.7C196.794 21.54 196.734 21.29 196.654 20.95C196.634 20.91 196.644 20.86 196.684 20.8C196.724 20.74 196.794 20.72 196.894 20.74C197.454 20.78 198.224 20.81 199.204 20.83C200.184 20.83 201.264 20.82 202.444 20.8C203.624 20.76 204.784 20.71 205.924 20.65C207.084 20.59 208.124 20.52 209.044 20.44C209.964 20.36 210.654 20.27 211.114 20.17C211.274 20.13 211.434 20.13 211.594 20.17L213.274 20.53C213.454 20.59 213.524 20.7 213.484 20.86C213.464 21.06 213.414 21.35 213.334 21.73C213.274 22.11 213.214 22.5 213.154 22.9C213.094 23.28 213.044 23.59 213.004 23.83C212.904 24.51 212.774 25.29 212.614 26.17C212.474 27.05 212.324 27.95 212.164 28.87C212.004 29.77 211.844 30.61 211.684 31.39C211.524 32.15 211.384 32.75 211.264 33.19C211.164 33.55 211.064 33.77 210.964 33.85C210.884 33.93 210.784 33.99 210.664 34.03C210.504 34.07 210.314 34.1 210.094 34.12C209.894 34.12 209.704 34.12 209.524 34.12ZM193.594 39.52C193.374 39.54 193.224 39.52 193.144 39.46C193.064 39.4 193.004 39.31 192.964 39.19C192.884 38.97 192.814 38.75 192.754 38.53C192.694 38.29 192.624 38 192.544 37.66C192.524 37.62 192.534 37.57 192.574 37.51C192.614 37.43 192.684 37.4 192.784 37.42C193.544 37.52 194.574 37.59 195.874 37.63C197.194 37.65 198.644 37.66 200.224 37.66C201.764 37.66 203.364 37.64 205.024 37.6C206.684 37.56 208.284 37.51 209.824 37.45C211.364 37.39 212.734 37.31 213.934 37.21C215.154 37.11 216.094 37 216.754 36.88C216.954 36.84 217.084 36.85 217.144 36.91C217.204 36.97 217.244 37.05 217.264 37.15L217.444 38.59C217.444 38.69 217.414 38.78 217.354 38.86C217.294 38.94 217.134 38.98 216.874 38.98C216.194 38.96 215.404 38.95 214.504 38.95C213.604 38.95 212.644 38.95 211.624 38.95C209.124 38.95 206.704 38.98 204.364 39.04C202.024 39.08 199.924 39.14 198.064 39.22C196.204 39.3 194.714 39.4 193.594 39.52Z" fill="white"/>
<rect x="108" width="60" height="60" rx="10" fill="#432D2D" fill-opacity="0.76"/>
<path d="M130.964 32.5C130.344 32.48 129.904 32.28 129.644 31.9C129.384 31.5 129.254 30.87 129.254 30.01V28.09C129.254 27.77 129.224 27.4 129.164 26.98C129.124 26.54 129.044 26.16 128.924 25.84C128.884 25.78 128.894 25.7 128.954 25.6C129.014 25.5 129.114 25.46 129.254 25.48C129.554 25.5 130.114 25.52 130.934 25.54C131.754 25.54 132.704 25.54 133.784 25.54C134.864 25.52 135.964 25.5 137.084 25.48C138.224 25.44 139.254 25.4 140.174 25.36C141.114 25.3 141.824 25.23 142.304 25.15L142.424 21.64C142.424 21.62 142.424 21.59 142.424 21.55C142.424 21.45 142.414 21.39 142.394 21.37C142.374 21.33 142.284 21.31 142.124 21.31C141.664 21.31 141.024 21.32 140.204 21.34C139.404 21.36 138.544 21.39 137.624 21.43C136.704 21.45 135.824 21.48 134.984 21.52C134.164 21.54 133.494 21.56 132.974 21.58C132.514 21.62 131.984 21.64 131.384 21.64C130.804 21.64 130.294 21.66 129.854 21.7C129.634 21.72 129.494 21.7 129.434 21.64C129.374 21.58 129.324 21.5 129.284 21.4C129.284 21.38 129.284 21.37 129.284 21.37L129.014 20.2C128.994 20.16 129.004 20.11 129.044 20.05C129.084 19.99 129.154 19.97 129.254 19.99C129.654 20.03 130.244 20.07 131.024 20.11C131.804 20.13 132.694 20.14 133.694 20.14C134.694 20.12 135.724 20.09 136.784 20.05C137.844 20.01 138.854 19.96 139.814 19.9C140.794 19.84 141.624 19.76 142.304 19.66C142.344 19.66 142.384 19.65 142.424 19.63C142.564 19.61 142.674 19.61 142.754 19.63L144.464 19.93C144.564 19.97 144.614 20.01 144.614 20.05C144.634 20.09 144.644 20.13 144.644 20.17C144.644 20.19 144.644 20.2 144.644 20.2L144.374 22.39C144.294 23.15 144.224 23.82 144.164 24.4C144.124 24.98 144.084 25.58 144.044 26.2C144.024 26.42 143.964 26.57 143.864 26.65C143.764 26.73 143.664 26.77 143.564 26.77C142.904 26.77 142.034 26.78 140.954 26.8C139.894 26.82 138.754 26.84 137.534 26.86C136.334 26.88 135.164 26.91 134.024 26.95C132.904 26.97 131.944 26.99 131.144 27.01V29.83C131.144 30.29 131.174 30.59 131.234 30.73C131.294 30.87 131.494 30.95 131.834 30.97C133.134 31.01 134.504 31.01 135.944 30.97C137.404 30.91 138.784 30.84 140.084 30.76C140.924 30.72 141.734 30.66 142.514 30.58C143.294 30.5 144.014 30.4 144.674 30.28C144.874 30.24 145.004 30.25 145.064 30.31C145.124 30.37 145.164 30.45 145.184 30.55L145.304 31.78C145.324 31.88 145.304 31.97 145.244 32.05C145.204 32.13 145.044 32.17 144.764 32.17C143.364 32.17 141.844 32.19 140.204 32.23C138.564 32.27 136.944 32.32 135.344 32.38C133.744 32.42 132.284 32.46 130.964 32.5ZM125.594 40.27C125.374 40.29 125.224 40.27 125.144 40.21C125.064 40.15 125.004 40.06 124.964 39.94C124.884 39.72 124.814 39.5 124.754 39.28C124.694 39.04 124.624 38.75 124.544 38.41C124.524 38.37 124.534 38.32 124.574 38.26C124.614 38.18 124.684 38.15 124.784 38.17C125.544 38.27 126.584 38.34 127.904 38.38C129.224 38.4 130.674 38.41 132.254 38.41C132.894 38.41 133.544 38.41 134.204 38.41C134.884 38.41 135.574 38.4 136.274 38.38V37.03C136.274 36.25 136.244 35.57 136.184 34.99C136.124 34.41 136.054 34.02 135.974 33.82C135.894 33.62 135.964 33.52 136.184 33.52H137.984C138.104 33.52 138.164 33.6 138.164 33.76C138.164 33.78 138.164 33.8 138.164 33.82C138.124 34.34 138.094 34.84 138.074 35.32C138.074 35.8 138.064 36.3 138.044 36.82L137.984 38.35C139.504 38.31 140.964 38.26 142.364 38.2C143.784 38.12 145.044 38.03 146.144 37.93C147.264 37.83 148.134 37.73 148.754 37.63C148.954 37.59 149.084 37.6 149.144 37.66C149.204 37.72 149.244 37.8 149.264 37.9L149.444 39.34C149.444 39.44 149.414 39.53 149.354 39.61C149.294 39.69 149.134 39.73 148.874 39.73C148.194 39.71 147.404 39.7 146.504 39.7C145.604 39.7 144.644 39.7 143.624 39.7C141.124 39.7 138.704 39.73 136.364 39.79C134.024 39.83 131.924 39.89 130.064 39.97C128.204 40.05 126.714 40.15 125.594 40.27Z" fill="white"/>
<rect x="244" width="60" height="60" rx="10" fill="#432D2D" fill-opacity="0.76"/>
<path d="M268.908 32.17C267.768 32.19 266.708 31.96 265.728 31.48C264.768 31 263.998 30.32 263.418 29.44C262.838 28.56 262.548 27.54 262.548 26.38C262.548 25.26 262.838 24.26 263.418 23.38C263.998 22.48 264.768 21.76 265.728 21.22C266.708 20.66 267.778 20.37 268.938 20.35C270.098 20.31 271.158 20.52 272.118 20.98C273.078 21.44 273.848 22.11 274.428 22.99C275.008 23.85 275.298 24.9 275.298 26.14C275.298 27.26 274.998 28.27 274.398 29.17C273.818 30.07 273.048 30.79 272.088 31.33C271.128 31.85 270.068 32.13 268.908 32.17ZM268.938 30.61C270.178 30.57 271.208 30.15 272.028 29.35C272.868 28.55 273.288 27.48 273.288 26.14C273.288 24.68 272.868 23.6 272.028 22.9C271.208 22.2 270.168 21.87 268.908 21.91C267.648 21.99 266.598 22.42 265.758 23.2C264.918 23.98 264.498 25.03 264.498 26.35C264.498 27.75 264.918 28.82 265.758 29.56C266.618 30.3 267.678 30.65 268.938 30.61ZM280.908 37.45C280.828 37.45 280.788 37.4 280.788 37.3V21.46C280.788 20.7 280.758 20 280.698 19.36C280.658 18.72 280.588 18.3 280.488 18.1C280.448 18 280.448 17.93 280.488 17.89C280.548 17.83 280.618 17.8 280.698 17.8C280.978 17.8 281.308 17.8 281.688 17.8C282.068 17.8 282.388 17.81 282.648 17.83C282.748 17.83 282.798 17.91 282.798 18.07C282.738 18.81 282.698 19.46 282.678 20.02C282.678 20.56 282.678 21.19 282.678 21.91V36.7C282.678 37 282.658 37.18 282.618 37.24C282.598 37.3 282.538 37.34 282.438 37.36L280.908 37.45ZM271.098 44.5C270.458 44.5 269.968 44.26 269.628 43.78C269.308 43.32 269.148 42.66 269.148 41.8V39.13C269.148 38.43 269.118 37.85 269.058 37.39C268.998 36.93 268.938 36.6 268.878 36.4C268.818 36.2 268.888 36.1 269.088 36.1C269.208 36.1 269.408 36.11 269.688 36.13C269.988 36.13 270.268 36.14 270.528 36.16C270.808 36.18 270.958 36.19 270.978 36.19C271.078 36.19 271.128 36.29 271.128 36.49C271.088 36.95 271.058 37.36 271.038 37.72C271.038 38.06 271.038 38.49 271.038 39.01V41.62C271.038 42.12 271.098 42.47 271.218 42.67C271.358 42.85 271.578 42.95 271.878 42.97C272.438 42.99 273.118 43 273.918 43C274.738 43.02 275.588 43.02 276.468 43C277.368 42.96 278.218 42.92 279.018 42.88C279.858 42.84 280.728 42.77 281.628 42.67C282.528 42.55 283.218 42.43 283.698 42.31C283.898 42.27 284.028 42.28 284.088 42.34C284.148 42.4 284.188 42.48 284.208 42.58L284.448 43.99C284.448 44.09 284.418 44.17 284.358 44.23C284.318 44.29 284.158 44.32 283.878 44.32C281.898 44.32 279.858 44.35 277.758 44.41C275.658 44.47 273.438 44.5 271.098 44.5Z" fill="white"/>
<rect x="312" width="60" height="60" rx="10" fill="#E8E4DE"/>
<rect x="40" width="60" height="60" rx="10" fill="#E8E4DE"/>
<rect width="32" height="60" rx="10" fill="#E8E4DE"/>
<rect x="380" width="32" height="60" rx="10" fill="#E8E4DE"/>
</svg>
