<svg width="412" height="129" viewBox="0 0 412 129" fill="none" xmlns="http://www.w3.org/2000/svg">
<path d="M147.838 0H112.162C105.445 0 100 5.59644 100 12.5V47.5C100 54.4036 105.445 60 112.162 60H147.838C154.555 60 160 54.4036 160 47.5V12.5C160 5.59644 154.555 0 147.838 0Z" fill="#432D2D"/>
<path d="M123.488 30.8333C122.731 30.8558 122.202 30.6441 121.899 30.1999C121.596 29.7557 121.445 28.9999 121.445 27.9332V22.5666C121.445 21.7891 121.391 21.1224 121.283 20.5666C121.175 19.9891 121.067 19.5891 120.958 19.3666C120.893 19.2333 120.893 19.1224 120.958 19.0333C121.023 18.9224 121.11 18.8666 121.218 18.8666C121.369 18.8666 121.639 18.8774 122.028 18.8999C122.418 18.9224 122.829 18.9441 123.261 18.9666C123.996 18.9891 124.883 18.9999 125.92 18.9999C126.958 18.9774 128.061 18.9441 129.228 18.8999C130.418 18.8558 131.575 18.8108 132.699 18.7666C133.975 18.7224 135.078 18.6558 136.007 18.5666C136.937 18.4774 137.683 18.3999 138.245 18.3333C138.31 18.3333 138.386 18.3441 138.472 18.3666C138.558 18.3891 138.613 18.4558 138.634 18.5666L138.731 19.4666C138.753 19.5558 138.764 19.6441 138.764 19.7333C138.764 19.7999 138.764 19.8774 138.764 19.9666C138.807 20.2108 138.678 20.3333 138.374 20.3333C137.77 20.3333 137.186 20.3441 136.623 20.3666C136.061 20.3666 135.467 20.3774 134.839 20.3999L123.488 20.6999V27.5333C123.488 28.1999 123.542 28.6333 123.65 28.8333C123.759 29.0333 123.986 29.1441 124.331 29.1666C124.872 29.1891 125.553 29.1999 126.374 29.1999C127.197 29.1999 128.05 29.1891 128.937 29.1666C129.824 29.1441 130.645 29.1224 131.401 29.0999C132.18 29.0558 132.775 29.0224 133.185 28.9999C134.353 28.9557 135.37 28.8891 136.234 28.7999C137.121 28.7108 137.834 28.6108 138.374 28.4999C138.591 28.4558 138.731 28.4666 138.796 28.5332C138.861 28.5774 138.905 28.6557 138.926 28.7666C138.97 29.0107 138.991 29.2558 138.991 29.4999C139.013 29.7224 139.034 29.9774 139.056 30.2666C139.056 30.3999 139.013 30.4891 138.926 30.5333C138.861 30.5774 138.678 30.5999 138.374 30.5999C136.061 30.5999 133.618 30.6333 131.045 30.6999C128.494 30.7441 125.975 30.7891 123.488 30.8333ZM117.812 41.1666C117.575 41.1891 117.413 41.1666 117.326 41.0999C117.24 41.0333 117.175 40.9333 117.131 40.7999C117.045 40.5558 116.969 40.3107 116.904 40.0666C116.839 39.7999 116.764 39.4774 116.677 39.0999C116.656 39.0558 116.667 38.9999 116.71 38.9332C116.753 38.8441 116.829 38.8108 116.937 38.8333C117.759 38.9441 118.883 39.0224 120.31 39.0666C121.737 39.0891 123.305 39.0999 125.012 39.0999C125.705 39.0999 126.407 39.0999 127.12 39.0999C127.856 39.0999 128.602 39.0891 129.358 39.0666V36.2999C129.358 35.4333 129.326 34.6774 129.261 34.0333C129.196 33.3891 129.121 32.9558 129.034 32.7333C128.948 32.5108 129.023 32.3999 129.261 32.3999H131.207C131.337 32.3999 131.401 32.4891 131.401 32.6666C131.401 32.6891 131.401 32.7108 131.401 32.7333C131.358 33.3108 131.326 33.8666 131.304 34.3999C131.283 34.9333 131.272 35.4891 131.272 36.0666L131.239 39.0333C132.883 38.9891 134.461 38.9333 135.974 38.8666C137.488 38.7774 138.85 38.6774 140.061 38.5666C141.272 38.4558 142.201 38.3441 142.85 38.2332C143.067 38.1891 143.207 38.1999 143.272 38.2666C143.337 38.3333 143.38 38.4224 143.401 38.5332L143.596 40.1332C143.596 40.2441 143.564 40.3441 143.499 40.4332C143.434 40.5224 143.261 40.5666 142.98 40.5666C142.245 40.5441 141.391 40.5333 140.418 40.5333C139.445 40.5333 138.407 40.5333 137.304 40.5333C134.602 40.5333 131.985 40.5666 129.456 40.6333C126.926 40.6774 124.656 40.7441 122.645 40.8333C120.634 40.9224 119.024 41.0333 117.812 41.1666Z" fill="#D9D9D9"/>
<path d="M215.838 0H180.162C173.445 0 168 5.59644 168 12.5V47.5C168 54.4036 173.445 60 180.162 60H215.838C222.555 60 228 54.4036 228 47.5V12.5C228 5.59644 222.555 0 215.838 0Z" fill="#D9D9D9"/>
<path d="M185.428 33.6333L184.714 32.8667C184.627 32.7775 184.66 32.6667 184.811 32.5333C186.13 31.8892 187.438 31.0775 188.736 30.1C190.033 29.1 191.233 28.0108 192.336 26.8333C193.438 25.6333 194.357 24.4 195.092 23.1333C195.828 21.8667 196.282 20.6442 196.455 19.4667C196.476 19.2225 196.39 19.1 196.195 19.1C195.265 19.1225 194.346 19.1667 193.438 19.2333C192.552 19.3 191.644 19.3667 190.714 19.4333C190.065 19.4775 189.406 19.5333 188.736 19.6C188.087 19.6667 187.416 19.7333 186.725 19.8C186.508 19.8225 186.368 19.8 186.303 19.7333C186.238 19.6442 186.184 19.5442 186.141 19.4333C186.119 19.4108 186.109 19.3892 186.109 19.3667C186.022 19.1225 185.957 18.9225 185.914 18.7667C185.871 18.5892 185.806 18.3108 185.719 17.9333C185.698 17.8892 185.709 17.8333 185.752 17.7667C185.795 17.7 185.871 17.6775 185.979 17.7C186.93 17.7892 187.957 17.8333 189.06 17.8333C190.163 17.8108 191.265 17.7667 192.368 17.7C193.471 17.6108 194.498 17.5108 195.449 17.4C195.687 17.3558 195.958 17.3108 196.26 17.2667C196.562 17.2 196.725 17.1667 196.746 17.1667C196.854 17.1225 196.973 17.1225 197.103 17.1667C197.276 17.2108 197.503 17.3 197.784 17.4333C198.066 17.5442 198.325 17.6558 198.563 17.7667C198.8 17.8775 198.941 17.9442 198.984 17.9667C199.201 18.0558 199.276 18.2 199.211 18.4C199.06 18.8667 198.919 19.2892 198.79 19.6667C198.66 20.0225 198.487 20.4558 198.271 20.9667C197.817 22.1225 197.103 23.4333 196.13 24.9C195.157 26.3442 193.882 27.8333 192.303 29.3667C190.725 30.8775 188.779 32.3 186.465 33.6333C186.293 33.7442 186.119 33.8108 185.946 33.8333C185.774 33.8558 185.6 33.7892 185.428 33.6333ZM204.044 45.5C203.957 45.5 203.914 45.4442 203.914 45.3333V36.5667C203.914 36.4108 203.892 36.3108 203.849 36.2667C203.827 36.2225 203.719 36.2 203.525 36.2C203.028 36.2 202.335 36.2108 201.449 36.2333C200.563 36.2558 199.622 36.2892 198.627 36.3333C197.633 36.3558 196.692 36.3892 195.806 36.4333C194.941 36.4558 194.282 36.4775 193.828 36.5C193.287 36.5442 192.692 36.5892 192.044 36.6333C191.417 36.6775 190.833 36.7225 190.292 36.7667C190.076 36.7892 189.936 36.7667 189.871 36.7C189.806 36.6108 189.752 36.5108 189.709 36.4C189.687 36.3775 189.676 36.3558 189.676 36.3333L189.352 34.9C189.33 34.8558 189.341 34.8 189.384 34.7333C189.427 34.6667 189.503 34.6442 189.611 34.6667C189.958 34.7108 190.584 34.7442 191.492 34.7667C192.422 34.7892 193.481 34.8 194.671 34.8C195.86 34.7775 197.06 34.7442 198.271 34.7C199.481 34.6558 200.573 34.6 201.546 34.5333C202.519 34.4442 203.222 34.3442 203.655 34.2333C203.676 34.2333 203.709 34.2225 203.752 34.2C203.795 34.2 203.839 34.2 203.882 34.2C203.925 34.1775 204.001 34.1775 204.109 34.2L206.022 34.5C206.13 34.5225 206.184 34.5667 206.184 34.6333C206.206 34.6775 206.217 34.7225 206.217 34.7667C206.217 34.7892 206.217 34.8 206.217 34.8C206.152 35.4225 206.097 36.0558 206.055 36.7C206.033 37.3442 206.022 37.9333 206.022 38.4667L205.99 44.8667C205.99 45.1333 205.935 45.2892 205.827 45.3333C205.741 45.3775 205.643 45.4108 205.536 45.4333L204.044 45.5ZM204.173 32.3C204.087 32.3 204.044 32.2442 204.044 32.1333V19.0667C204.044 18.2225 204.011 17.4442 203.946 16.7333C203.903 16.0225 203.827 15.5558 203.719 15.3333C203.676 15.2225 203.676 15.1442 203.719 15.1C203.784 15.0333 203.86 15 203.946 15C204.163 15 204.476 15 204.887 15C205.319 15 205.708 15.0108 206.055 15.0333C206.162 15.0333 206.217 15.1225 206.217 15.3C206.152 16.1225 206.109 16.8442 206.087 17.4667C206.087 18.0667 206.087 18.7667 206.087 19.5667V23.6333C206.671 23.6333 207.298 23.6108 207.968 23.5667C208.66 23.5 209.298 23.4333 209.882 23.3667C210.487 23.2775 210.941 23.1892 211.244 23.1C211.438 23.0775 211.546 23.1442 211.568 23.3C211.611 23.5892 211.643 23.8775 211.665 24.1667C211.687 24.4558 211.708 24.7442 211.73 25.0333C211.73 25.2775 211.633 25.4 211.438 25.4C211.136 25.3558 210.67 25.3333 210.044 25.3333C209.417 25.3108 208.746 25.3 208.033 25.3C207.341 25.3 206.693 25.3225 206.087 25.3667V31.4667C206.087 31.8 206.065 32 206.022 32.0667C206 32.1333 205.935 32.1775 205.827 32.2L204.173 32.3Z" fill="#432D2D" fill-opacity="0.76"/>
<path d="M283.838 0H248.162C241.445 0 236 5.59644 236 12.5V47.5C236 54.4036 241.445 60 248.162 60H283.838C290.555 60 296 54.4036 296 47.5V12.5C296 5.59644 290.555 0 283.838 0Z" fill="#E1C9A9"/>
<path d="M272.491 15.8333L261.853 44.1666H260.167L270.772 15.8333H272.491Z" fill="#432D2D"/>
<rect x="32" width="60" height="60" rx="10" fill="#E8E4DE" fill-opacity="0.98"/>
<rect x="304" width="60" height="60" rx="10" fill="#E8E4DE"/>
<path d="M372 10C372 4.47715 376.477 0 382 0H412V60H382C376.477 60 372 55.5228 372 50V10Z" fill="#E8E4DE"/>
<path d="M0 0H14C19.5228 0 24 4.47715 24 10V50C24 55.5228 19.5228 60 14 60H0V0Z" fill="#E8E4DE"/>
<path d="M231.838 69H196.162C189.445 69 184 74.5964 184 81.5V116.5C184 123.404 189.445 129 196.162 129H231.838C238.555 129 244 123.404 244 116.5V81.5C244 74.5964 238.555 69 231.838 69Z" fill="#432D2D"/>
<path d="M207.488 99.8333C206.731 99.8558 206.202 99.6441 205.899 99.1999C205.596 98.7557 205.445 97.9999 205.445 96.9332V91.5666C205.445 90.7891 205.391 90.1224 205.283 89.5666C205.175 88.9891 205.067 88.5891 204.958 88.3666C204.893 88.2333 204.893 88.1224 204.958 88.0333C205.023 87.9224 205.11 87.8666 205.218 87.8666C205.369 87.8666 205.639 87.8774 206.028 87.8999C206.418 87.9224 206.829 87.9441 207.261 87.9666C207.996 87.9891 208.883 87.9999 209.92 87.9999C210.958 87.9774 212.061 87.9441 213.228 87.8999C214.418 87.8558 215.575 87.8108 216.699 87.7666C217.975 87.7224 219.078 87.6558 220.007 87.5666C220.937 87.4774 221.683 87.3999 222.245 87.3333C222.31 87.3333 222.386 87.3441 222.472 87.3666C222.558 87.3891 222.613 87.4558 222.634 87.5666L222.731 88.4666C222.753 88.5558 222.764 88.6441 222.764 88.7333C222.764 88.7999 222.764 88.8774 222.764 88.9666C222.807 89.2108 222.678 89.3333 222.374 89.3333C221.77 89.3333 221.186 89.3441 220.623 89.3666C220.061 89.3666 219.467 89.3774 218.839 89.3999L207.488 89.6999V96.5333C207.488 97.1999 207.542 97.6333 207.65 97.8333C207.759 98.0333 207.986 98.1441 208.331 98.1666C208.872 98.1891 209.553 98.1999 210.374 98.1999C211.197 98.1999 212.05 98.1891 212.937 98.1666C213.824 98.1441 214.645 98.1224 215.401 98.0999C216.18 98.0558 216.775 98.0224 217.185 97.9999C218.353 97.9557 219.37 97.8891 220.234 97.7999C221.121 97.7108 221.834 97.6108 222.374 97.4999C222.591 97.4558 222.731 97.4666 222.796 97.5332C222.861 97.5774 222.905 97.6557 222.926 97.7666C222.97 98.0107 222.991 98.2558 222.991 98.4999C223.013 98.7224 223.034 98.9774 223.056 99.2666C223.056 99.3999 223.013 99.4891 222.926 99.5333C222.861 99.5774 222.678 99.5999 222.374 99.5999C220.061 99.5999 217.618 99.6333 215.045 99.6999C212.494 99.7441 209.975 99.7891 207.488 99.8333ZM201.812 110.167C201.575 110.189 201.413 110.167 201.326 110.1C201.24 110.033 201.175 109.933 201.131 109.8C201.045 109.556 200.969 109.311 200.904 109.067C200.839 108.8 200.764 108.477 200.677 108.1C200.656 108.056 200.667 108 200.71 107.933C200.753 107.844 200.829 107.811 200.937 107.833C201.759 107.944 202.883 108.022 204.31 108.067C205.737 108.089 207.305 108.1 209.012 108.1C209.705 108.1 210.407 108.1 211.12 108.1C211.856 108.1 212.602 108.089 213.358 108.067V105.3C213.358 104.433 213.326 103.677 213.261 103.033C213.196 102.389 213.121 101.956 213.034 101.733C212.948 101.511 213.023 101.4 213.261 101.4H215.207C215.337 101.4 215.401 101.489 215.401 101.667C215.401 101.689 215.401 101.711 215.401 101.733C215.358 102.311 215.326 102.867 215.304 103.4C215.283 103.933 215.272 104.489 215.272 105.067L215.239 108.033C216.883 107.989 218.461 107.933 219.974 107.867C221.488 107.777 222.85 107.677 224.061 107.567C225.272 107.456 226.201 107.344 226.85 107.233C227.067 107.189 227.207 107.2 227.272 107.267C227.337 107.333 227.38 107.422 227.401 107.533L227.596 109.133C227.596 109.244 227.564 109.344 227.499 109.433C227.434 109.522 227.261 109.567 226.98 109.567C226.245 109.544 225.391 109.533 224.418 109.533C223.445 109.533 222.407 109.533 221.304 109.533C218.602 109.533 215.985 109.567 213.456 109.633C210.926 109.677 208.656 109.744 206.645 109.833C204.634 109.922 203.024 110.033 201.812 110.167Z" fill="#D9D9D9"/>
<path d="M299.838 69H264.162C257.445 69 252 74.5964 252 81.5V116.5C252 123.404 257.445 129 264.162 129H299.838C306.555 129 312 123.404 312 116.5V81.5C312 74.5964 306.555 69 299.838 69Z" fill="#D9D9D9"/>
<path d="M269.428 102.633L268.714 101.867C268.627 101.777 268.66 101.667 268.811 101.533C270.13 100.889 271.438 100.078 272.736 99.1C274.033 98.1 275.233 97.0108 276.336 95.8333C277.438 94.6333 278.357 93.4 279.092 92.1333C279.828 90.8667 280.282 89.6442 280.455 88.4667C280.476 88.2225 280.39 88.1 280.195 88.1C279.265 88.1225 278.346 88.1667 277.438 88.2333C276.552 88.3 275.644 88.3667 274.714 88.4333C274.065 88.4775 273.406 88.5333 272.736 88.6C272.087 88.6667 271.416 88.7333 270.725 88.8C270.508 88.8225 270.368 88.8 270.303 88.7333C270.238 88.6442 270.184 88.5442 270.141 88.4333C270.119 88.4108 270.109 88.3892 270.109 88.3667C270.022 88.1225 269.957 87.9225 269.914 87.7667C269.871 87.5892 269.806 87.3108 269.719 86.9333C269.698 86.8892 269.709 86.8333 269.752 86.7667C269.795 86.7 269.871 86.6775 269.979 86.7C270.93 86.7892 271.957 86.8333 273.06 86.8333C274.163 86.8108 275.265 86.7667 276.368 86.7C277.471 86.6108 278.498 86.5108 279.449 86.4C279.687 86.3558 279.958 86.3108 280.26 86.2667C280.562 86.2 280.725 86.1667 280.746 86.1667C280.854 86.1225 280.973 86.1225 281.103 86.1667C281.276 86.2108 281.503 86.3 281.784 86.4333C282.066 86.5442 282.325 86.6558 282.563 86.7667C282.8 86.8775 282.941 86.9442 282.984 86.9667C283.201 87.0558 283.276 87.2 283.211 87.4C283.06 87.8667 282.919 88.2892 282.79 88.6667C282.66 89.0225 282.487 89.4558 282.271 89.9667C281.817 91.1225 281.103 92.4333 280.13 93.9C279.157 95.3442 277.882 96.8333 276.303 98.3667C274.725 99.8775 272.779 101.3 270.465 102.633C270.293 102.744 270.119 102.811 269.946 102.833C269.774 102.856 269.6 102.789 269.428 102.633ZM288.044 114.5C287.957 114.5 287.914 114.444 287.914 114.333V105.567C287.914 105.411 287.892 105.311 287.849 105.267C287.827 105.222 287.719 105.2 287.525 105.2C287.028 105.2 286.335 105.211 285.449 105.233C284.563 105.256 283.622 105.289 282.627 105.333C281.633 105.356 280.692 105.389 279.806 105.433C278.941 105.456 278.282 105.477 277.828 105.5C277.287 105.544 276.692 105.589 276.044 105.633C275.417 105.677 274.833 105.723 274.292 105.767C274.076 105.789 273.936 105.767 273.871 105.7C273.806 105.611 273.752 105.511 273.709 105.4C273.687 105.377 273.676 105.356 273.676 105.333L273.352 103.9C273.33 103.856 273.341 103.8 273.384 103.733C273.427 103.667 273.503 103.644 273.611 103.667C273.958 103.711 274.584 103.744 275.492 103.767C276.422 103.789 277.481 103.8 278.671 103.8C279.86 103.778 281.06 103.744 282.271 103.7C283.481 103.656 284.573 103.6 285.546 103.533C286.519 103.444 287.222 103.344 287.655 103.233C287.676 103.233 287.709 103.223 287.752 103.2C287.795 103.2 287.839 103.2 287.882 103.2C287.925 103.178 288.001 103.178 288.109 103.2L290.022 103.5C290.13 103.523 290.184 103.567 290.184 103.633C290.206 103.678 290.217 103.722 290.217 103.767C290.217 103.789 290.217 103.8 290.217 103.8C290.152 104.423 290.097 105.056 290.055 105.7C290.033 106.344 290.022 106.933 290.022 107.467L289.99 113.867C289.99 114.133 289.935 114.289 289.827 114.333C289.741 114.378 289.643 114.411 289.536 114.433L288.044 114.5ZM288.173 101.3C288.087 101.3 288.044 101.244 288.044 101.133V88.0667C288.044 87.2225 288.011 86.4442 287.946 85.7333C287.903 85.0225 287.827 84.5558 287.719 84.3333C287.676 84.2225 287.676 84.1442 287.719 84.1C287.784 84.0333 287.86 84 287.946 84C288.163 84 288.476 84 288.887 84C289.319 84 289.708 84.0108 290.055 84.0333C290.162 84.0333 290.217 84.1225 290.217 84.3C290.152 85.1225 290.109 85.8442 290.087 86.4667C290.087 87.0667 290.087 87.7667 290.087 88.5667V92.6333C290.671 92.6333 291.298 92.6108 291.968 92.5667C292.66 92.5 293.298 92.4333 293.882 92.3667C294.487 92.2775 294.941 92.1892 295.244 92.1C295.438 92.0775 295.546 92.1442 295.568 92.3C295.611 92.5892 295.643 92.8775 295.665 93.1667C295.687 93.4558 295.708 93.7442 295.73 94.0333C295.73 94.2775 295.633 94.4 295.438 94.4C295.136 94.3558 294.67 94.3333 294.044 94.3333C293.417 94.3108 292.746 94.3 292.033 94.3C291.341 94.3 290.693 94.3225 290.087 94.3667V100.467C290.087 100.8 290.065 101 290.022 101.067C290 101.133 289.935 101.177 289.827 101.2L288.173 101.3Z" fill="#432D2D" fill-opacity="0.76"/>
<rect x="320" y="69" width="60" height="60" rx="10" fill="#E8E4DE"/>
<rect x="48" y="69" width="60" height="60" rx="10" fill="#E8E4DE"/>
<path d="M388 79C388 73.4772 392.477 69 398 69H412V129H398C392.477 129 388 124.523 388 119V79Z" fill="#E8E4DE"/>
<path d="M0 69H30C35.5228 69 40 73.4772 40 79V119C40 124.523 35.5228 129 30 129H0V69Z" fill="#E8E4DE"/>
<path d="M163.838 69H128.162C121.445 69 116 74.5964 116 81.5V116.5C116 123.404 121.445 129 128.162 129H163.838C170.555 129 176 123.404 176 116.5V81.5C176 74.5964 170.555 69 163.838 69Z" fill="#E1C9A9" fill-opacity="0.76"/>
</svg>
