<svg width="412" height="130" viewBox="0 0 412 130" fill="none" xmlns="http://www.w3.org/2000/svg">
<rect x="142" width="60" height="60" rx="10" fill="#432D2D" fill-opacity="0.76"/>
<path d="M160.411 34.72C160.371 34.72 160.321 34.71 160.261 34.69C160.201 34.67 160.171 34.61 160.171 34.51C160.171 34.49 160.171 34.43 160.171 34.33C160.171 33.93 160.161 32.94 160.141 31.36C160.121 29.78 160.031 27.5 159.871 24.52C159.831 24 159.761 23.45 159.661 22.87C159.581 22.29 159.481 21.93 159.361 21.79C159.281 21.67 159.281 21.57 159.361 21.49C159.441 21.41 159.521 21.37 159.601 21.37C159.921 21.39 160.261 21.41 160.621 21.43C160.981 21.45 161.321 21.46 161.641 21.46C162.341 21.46 163.121 21.45 163.981 21.43C164.861 21.39 165.721 21.35 166.561 21.31C167.401 21.27 168.131 21.23 168.751 21.19C169.391 21.13 169.831 21.08 170.071 21.04C170.111 21.04 170.151 21.03 170.191 21.01C170.331 20.99 170.451 20.99 170.551 21.01L172.261 21.28C172.361 21.32 172.421 21.37 172.441 21.43C172.461 21.47 172.461 21.54 172.441 21.64C172.361 22.08 172.291 22.6 172.231 23.2C172.171 23.78 172.141 24.21 172.141 24.49C172.101 25.11 172.061 25.84 172.021 26.68C171.981 27.5 171.941 28.36 171.901 29.26C171.861 30.16 171.821 31.02 171.781 31.84C171.741 32.66 171.711 33.37 171.691 33.97C171.671 34.23 171.521 34.36 171.241 34.36C171.061 34.36 170.681 34.37 170.101 34.39C169.541 34.39 168.871 34.4 168.091 34.42C167.331 34.42 166.541 34.43 165.721 34.45C164.921 34.47 164.171 34.49 163.471 34.51C162.771 34.53 162.211 34.55 161.791 34.57C161.591 34.61 161.321 34.65 160.981 34.69C160.661 34.71 160.471 34.72 160.411 34.72ZM161.911 32.92C162.391 32.92 163.001 32.91 163.741 32.89C164.501 32.87 165.291 32.85 166.111 32.83C166.931 32.81 167.681 32.78 168.361 32.74C169.041 32.7 169.551 32.67 169.891 32.65C169.951 31.03 170.001 29.44 170.041 27.88C170.081 26.32 170.121 24.72 170.161 23.08C170.181 22.88 170.091 22.78 169.891 22.78L161.731 23.08L161.911 32.92ZM176.911 43.3C176.831 43.3 176.791 43.25 176.791 43.15V21.49C176.791 20.73 176.761 20.03 176.701 19.39C176.661 18.73 176.591 18.3 176.491 18.1C176.451 18 176.451 17.93 176.491 17.89C176.551 17.83 176.621 17.8 176.701 17.8C176.821 17.8 177.021 17.81 177.301 17.83C177.601 17.83 177.891 17.84 178.171 17.86C178.451 17.86 178.611 17.86 178.651 17.86C178.751 17.86 178.801 17.94 178.801 18.1C178.741 18.84 178.701 19.49 178.681 20.05C178.681 20.59 178.681 21.22 178.681 21.94V28.96C179.221 28.96 179.801 28.94 180.421 28.9C181.061 28.84 181.651 28.78 182.191 28.72C182.751 28.64 183.171 28.56 183.451 28.48C183.631 28.46 183.731 28.52 183.751 28.66C183.791 28.92 183.821 29.18 183.841 29.44C183.861 29.7 183.881 29.96 183.901 30.22C183.901 30.44 183.811 30.55 183.631 30.55C183.331 30.51 182.891 30.49 182.311 30.49C181.751 30.49 181.151 30.49 180.511 30.49C179.871 30.49 179.261 30.5 178.681 30.52V42.55C178.681 42.85 178.661 43.03 178.621 43.09C178.601 43.15 178.541 43.19 178.441 43.21L176.911 43.3Z" fill="white"/>
<rect x="210" width="60" height="60" rx="10" fill="#432D2D" fill-opacity="0.76"/>
<path d="M235.268 34C234.048 34.02 232.928 33.77 231.908 33.25C230.888 32.73 230.068 31.99 229.448 31.03C228.848 30.05 228.548 28.93 228.548 27.67C228.548 26.45 228.848 25.36 229.448 24.4C230.048 23.42 230.858 22.64 231.878 22.06C232.918 21.46 234.058 21.15 235.298 21.13C236.538 21.09 237.658 21.31 238.658 21.79C239.678 22.27 240.488 22.98 241.088 23.92C241.688 24.86 241.988 26.02 241.988 27.4C241.988 28.64 241.688 29.75 241.088 30.73C240.488 31.71 239.678 32.49 238.658 33.07C237.638 33.65 236.508 33.96 235.268 34ZM235.298 32.29C236.178 32.25 236.978 32.03 237.698 31.63C238.418 31.21 238.988 30.64 239.408 29.92C239.848 29.18 240.068 28.35 240.068 27.43C240.068 26.41 239.848 25.54 239.408 24.82C238.988 24.1 238.418 23.56 237.698 23.2C236.978 22.82 236.178 22.65 235.298 22.69C234.418 22.71 233.608 22.94 232.868 23.38C232.128 23.8 231.538 24.38 231.098 25.12C230.658 25.84 230.438 26.68 230.438 27.64C230.438 28.64 230.658 29.49 231.098 30.19C231.558 30.89 232.158 31.42 232.898 31.78C233.638 32.14 234.438 32.31 235.298 32.29ZM247.058 43.3C246.978 43.3 246.938 43.25 246.938 43.15V21.49C246.938 20.73 246.908 20.03 246.848 19.39C246.808 18.73 246.738 18.3 246.638 18.1C246.598 18 246.598 17.93 246.638 17.89C246.698 17.83 246.768 17.8 246.848 17.8C246.968 17.8 247.168 17.81 247.448 17.83C247.748 17.83 248.038 17.84 248.318 17.86C248.598 17.86 248.758 17.86 248.798 17.86C248.898 17.86 248.948 17.94 248.948 18.1C248.888 18.84 248.848 19.49 248.828 20.05C248.828 20.59 248.828 21.22 248.828 21.94V42.55C248.828 42.85 248.808 43.03 248.768 43.09C248.748 43.15 248.688 43.19 248.588 43.21L247.058 43.3Z" fill="white"/>
<rect x="176" y="70" width="60" height="60" rx="10" fill="#432D2D" fill-opacity="0.76"/>
<path d="M201.268 104C200.048 104.02 198.928 103.77 197.908 103.25C196.888 102.73 196.068 101.99 195.448 101.03C194.848 100.05 194.548 98.93 194.548 97.67C194.548 96.45 194.848 95.36 195.448 94.4C196.048 93.42 196.858 92.64 197.878 92.06C198.918 91.46 200.058 91.15 201.298 91.13C202.538 91.09 203.658 91.31 204.658 91.79C205.678 92.27 206.488 92.98 207.088 93.92C207.688 94.86 207.988 96.02 207.988 97.4C207.988 98.64 207.688 99.75 207.088 100.73C206.488 101.71 205.678 102.49 204.658 103.07C203.638 103.65 202.508 103.96 201.268 104ZM201.298 102.29C202.178 102.25 202.978 102.03 203.698 101.63C204.418 101.21 204.988 100.64 205.408 99.92C205.848 99.18 206.068 98.35 206.068 97.43C206.068 96.41 205.848 95.54 205.408 94.82C204.988 94.1 204.418 93.56 203.698 93.2C202.978 92.82 202.178 92.65 201.298 92.69C200.418 92.71 199.608 92.94 198.868 93.38C198.128 93.8 197.538 94.38 197.098 95.12C196.658 95.84 196.438 96.68 196.438 97.64C196.438 98.64 196.658 99.49 197.098 100.19C197.558 100.89 198.158 101.42 198.898 101.78C199.638 102.14 200.438 102.31 201.298 102.29ZM213.058 113.3C212.978 113.3 212.938 113.25 212.938 113.15V91.49C212.938 90.73 212.908 90.03 212.848 89.39C212.808 88.73 212.738 88.3 212.638 88.1C212.598 88 212.598 87.93 212.638 87.89C212.698 87.83 212.768 87.8 212.848 87.8C212.968 87.8 213.168 87.81 213.448 87.83C213.748 87.83 214.038 87.84 214.318 87.86C214.598 87.86 214.758 87.86 214.798 87.86C214.898 87.86 214.948 87.94 214.948 88.1C214.888 88.84 214.848 89.49 214.828 90.05C214.828 90.59 214.828 91.22 214.828 91.94V112.55C214.828 112.85 214.808 113.03 214.768 113.09C214.748 113.15 214.688 113.19 214.588 113.21L213.058 113.3Z" fill="white"/>
<rect x="108" y="70" width="60" height="60" rx="10" fill="#432D2D" fill-opacity="0.76"/>
<path d="M125.684 105.74C125.464 105.74 125.324 105.73 125.264 105.71C125.204 105.67 125.144 105.57 125.084 105.41C125.004 105.19 124.934 104.99 124.874 104.81C124.834 104.61 124.774 104.34 124.694 104C124.674 103.96 124.684 103.91 124.724 103.85C124.764 103.79 124.834 103.77 124.934 103.79C125.254 103.83 125.664 103.87 126.164 103.91C126.664 103.95 127.324 103.96 128.144 103.94C128.104 102.76 128.074 101.64 128.054 100.58C128.054 99.52 128.024 98.44 127.964 97.34C127.864 95.84 127.694 94.86 127.454 94.4C127.414 94.3 127.414 94.23 127.454 94.19C127.514 94.13 127.584 94.1 127.664 94.1H129.614C129.734 94.12 129.794 94.22 129.794 94.4C129.774 94.76 129.764 95.12 129.764 95.48C129.764 95.84 129.764 96.24 129.764 96.68C129.764 96.84 129.764 97.01 129.764 97.19C129.764 97.35 129.764 97.53 129.764 97.73L129.734 103.91C130.874 103.87 132.074 103.78 133.334 103.64C133.374 102.62 133.424 101.6 133.484 100.58C133.544 99.54 133.594 98.46 133.634 97.34C133.674 96.62 133.664 95.94 133.604 95.3C133.564 94.66 133.494 94.24 133.394 94.04C133.314 93.86 133.384 93.77 133.604 93.77C133.724 93.77 133.924 93.78 134.204 93.8C134.504 93.8 134.794 93.81 135.074 93.83C135.354 93.83 135.514 93.83 135.554 93.83C135.694 93.85 135.744 93.95 135.704 94.13C135.664 94.67 135.624 95.11 135.584 95.45C135.544 95.79 135.514 96.12 135.494 96.44C135.474 96.76 135.444 97.16 135.404 97.64L135.014 103.4C136.254 103.22 137.474 102.98 138.674 102.68C138.814 102.62 138.904 102.67 138.944 102.83L139.034 103.67C139.034 103.85 139.004 103.97 138.944 104.03C138.904 104.07 138.814 104.12 138.674 104.18C138.134 104.34 137.364 104.5 136.364 104.66C135.384 104.82 134.314 104.97 133.154 105.11C131.994 105.23 130.884 105.33 129.824 105.41C129.104 105.45 128.514 105.49 128.054 105.53C127.614 105.57 127.214 105.61 126.854 105.65C126.514 105.67 126.124 105.7 125.684 105.74ZM141.044 112.52C140.964 112.52 140.924 112.47 140.924 112.37V98.48L139.904 98.51C139.424 98.53 138.954 98.57 138.494 98.63C138.034 98.67 137.564 98.71 137.084 98.75C136.864 98.77 136.724 98.76 136.664 98.72C136.624 98.68 136.594 98.61 136.574 98.51C136.554 98.49 136.544 98.47 136.544 98.45L136.304 97.19C136.264 97.03 136.334 96.96 136.514 96.98C136.994 97.06 137.654 97.09 138.494 97.07C139.354 97.05 140.164 97.02 140.924 96.98V92.24C140.924 91.48 140.904 90.78 140.864 90.14C140.824 89.5 140.754 89.08 140.654 88.88C140.614 88.78 140.614 88.71 140.654 88.67C140.714 88.61 140.784 88.58 140.864 88.58L142.634 88.61C142.734 88.65 142.784 88.73 142.784 88.85C142.744 89.43 142.724 89.95 142.724 90.41C142.724 90.87 142.724 91.35 142.724 91.85C142.724 91.97 142.724 92.1 142.724 92.24C142.724 92.38 142.724 92.53 142.724 92.69V111.77C142.724 112.07 142.704 112.25 142.664 112.31C142.644 112.37 142.584 112.41 142.484 112.43C142.424 112.43 142.284 112.44 142.064 112.46C141.864 112.46 141.664 112.47 141.464 112.49C141.264 112.51 141.124 112.52 141.044 112.52ZM145.424 113.3C145.344 113.3 145.304 113.25 145.304 113.15V91.46C145.304 90.7 145.284 90 145.244 89.36C145.224 88.72 145.164 88.3 145.064 88.1C145.024 88 145.024 87.93 145.064 87.89C145.124 87.83 145.194 87.8 145.274 87.8L147.044 87.83C147.144 87.87 147.194 87.95 147.194 88.07C147.154 88.67 147.124 89.21 147.104 89.69C147.104 90.17 147.104 90.67 147.104 91.19C147.104 91.31 147.104 91.43 147.104 91.55C147.104 91.67 147.104 91.79 147.104 91.91V112.55C147.104 112.85 147.084 113.03 147.044 113.09C147.024 113.15 146.964 113.19 146.864 113.21C146.804 113.21 146.664 113.21 146.444 113.21C146.244 113.23 146.044 113.25 145.844 113.27C145.644 113.29 145.504 113.3 145.424 113.3ZM126.104 93.17C125.904 93.19 125.774 93.17 125.714 93.11C125.654 93.03 125.604 92.94 125.564 92.84C125.544 92.82 125.534 92.8 125.534 92.78C125.454 92.56 125.394 92.39 125.354 92.27C125.314 92.13 125.254 91.89 125.174 91.55C125.154 91.51 125.164 91.46 125.204 91.4C125.244 91.34 125.314 91.31 125.414 91.31C125.814 91.31 126.234 91.33 126.674 91.37C127.134 91.39 127.824 91.4 128.744 91.4C129.864 91.36 130.974 91.31 132.074 91.25C133.194 91.19 134.214 91.12 135.134 91.04C136.074 90.94 136.834 90.85 137.414 90.77C137.474 90.75 137.544 90.76 137.624 90.8C137.704 90.82 137.754 90.88 137.774 90.98C137.814 91.12 137.854 91.33 137.894 91.61C137.934 91.87 137.964 92.11 137.984 92.33C138.024 92.55 137.904 92.66 137.624 92.66C137.244 92.64 136.884 92.63 136.544 92.63C136.224 92.63 135.864 92.63 135.464 92.63C135.024 92.63 134.464 92.64 133.784 92.66C133.104 92.68 132.404 92.71 131.684 92.75C130.984 92.79 130.354 92.83 129.794 92.87C129.254 92.89 128.884 92.91 128.684 92.93L126.104 93.17Z" fill="white"/>
<rect x="244" y="70" width="60" height="60" rx="10" fill="#432D2D" fill-opacity="0.76"/>
<path d="M261.895 106.37C261.795 106.29 261.655 106.19 261.475 106.07C261.315 105.93 261.185 105.81 261.085 105.71C260.965 105.57 260.975 105.46 261.115 105.38C263.115 103.96 264.685 102.48 265.825 100.94C266.985 99.4 267.815 97.9 268.315 96.44C268.835 94.96 269.135 93.64 269.215 92.48C268.695 92.52 268.245 92.55 267.865 92.57C267.485 92.59 267.225 92.6 267.085 92.6L263.785 92.9C263.585 92.92 263.455 92.9 263.395 92.84C263.335 92.76 263.285 92.67 263.245 92.57C263.225 92.55 263.215 92.53 263.215 92.51C263.135 92.29 263.075 92.1 263.035 91.94C263.015 91.76 262.965 91.5 262.885 91.16C262.865 91.02 262.945 90.95 263.125 90.95C263.685 90.99 264.205 91.02 264.685 91.04C265.185 91.04 265.915 91.04 266.875 91.04C267.955 91.04 268.925 91.02 269.785 90.98C270.665 90.94 271.475 90.89 272.215 90.83C272.995 90.77 273.625 90.72 274.105 90.68C274.605 90.64 275.035 90.6 275.395 90.56C275.775 90.5 276.175 90.45 276.595 90.41C276.655 90.41 276.725 90.42 276.805 90.44C276.885 90.46 276.935 90.52 276.955 90.62C276.975 90.74 276.995 90.88 277.015 91.04C277.055 91.2 277.085 91.36 277.105 91.52L277.165 92.06C277.205 92.28 277.085 92.39 276.805 92.39C276.425 92.37 275.995 92.36 275.515 92.36C275.055 92.36 274.625 92.36 274.225 92.36C273.885 92.36 273.475 92.37 272.995 92.39C272.535 92.39 272.035 92.4 271.495 92.42C271.375 94.02 270.895 95.74 270.055 97.58C271.015 98.26 271.975 98.98 272.935 99.74C273.895 100.48 274.765 101.19 275.545 101.87C276.325 102.53 276.925 103.1 277.345 103.58C277.425 103.68 277.485 103.8 277.525 103.94C277.585 104.06 277.565 104.19 277.465 104.33C277.285 104.55 277.075 104.75 276.835 104.93C276.615 105.09 276.395 105.26 276.175 105.44C276.055 105.54 275.955 105.52 275.875 105.38C275.595 104.94 275.205 104.43 274.705 103.85C274.225 103.27 273.675 102.68 273.055 102.08C272.455 101.46 271.835 100.87 271.195 100.31C270.575 99.75 269.985 99.26 269.425 98.84C268.725 100.1 267.835 101.36 266.755 102.62C265.675 103.88 264.375 105.09 262.855 106.25C262.835 106.27 262.805 106.29 262.765 106.31C262.625 106.41 262.495 106.48 262.375 106.52C262.255 106.54 262.095 106.49 261.895 106.37ZM280.405 113.3C280.325 113.3 280.285 113.25 280.285 113.15V91.49C280.285 90.73 280.255 90.03 280.195 89.39C280.155 88.73 280.085 88.3 279.985 88.1C279.945 88 279.945 87.93 279.985 87.89C280.045 87.83 280.115 87.8 280.195 87.8C280.315 87.8 280.515 87.81 280.795 87.83C281.095 87.83 281.385 87.84 281.665 87.86C281.945 87.86 282.105 87.86 282.145 87.86C282.245 87.86 282.295 87.94 282.295 88.1C282.235 88.84 282.195 89.49 282.175 90.05C282.175 90.59 282.175 91.22 282.175 91.94V112.55C282.175 112.85 282.155 113.03 282.115 113.09C282.095 113.15 282.035 113.19 281.935 113.21L280.405 113.3Z" fill="white"/>
<rect x="278" width="60" height="60" rx="10" fill="#E8E4DE"/>
<rect x="312" y="70" width="60" height="60" rx="10" fill="#E8E4DE"/>
<rect x="346" width="60" height="60" rx="10" fill="#E8E4DE"/>
<rect x="74" width="60" height="60" rx="10" fill="#E8E4DE"/>
<rect x="40" y="70" width="60" height="60" rx="10" fill="#E8E4DE"/>
<rect x="6" width="60" height="60" rx="10" fill="#E8E4DE"/>
<path d="M0 70H22C27.5228 70 32 74.4772 32 80V120C32 125.523 27.5228 130 22 130H0V70Z" fill="#E8E4DE"/>
<path d="M380 80C380 74.4772 384.477 70 390 70H412V130H390C384.477 130 380 125.523 380 120V80Z" fill="#E8E4DE"/>
</svg>
