<svg width="412" height="130" viewBox="0 0 412 130" fill="none" xmlns="http://www.w3.org/2000/svg">
<rect x="142" width="60" height="60" rx="10" fill="#432D2D" fill-opacity="0.76"/>
<path d="M164.844 30.97C164.144 30.99 163.654 30.8 163.374 30.4C163.094 30 162.954 29.32 162.954 28.36V23.53C162.954 22.83 162.904 22.23 162.804 21.73C162.704 21.21 162.604 20.85 162.504 20.65C162.444 20.53 162.444 20.43 162.504 20.35C162.564 20.25 162.644 20.2 162.744 20.2C162.884 20.2 163.134 20.21 163.494 20.23C163.854 20.25 164.234 20.27 164.634 20.29C165.314 20.31 166.134 20.32 167.094 20.32C168.054 20.3 169.074 20.27 170.154 20.23C171.254 20.19 172.324 20.15 173.364 20.11C174.544 20.07 175.564 20.01 176.424 19.93C177.284 19.85 177.974 19.78 178.494 19.72C178.554 19.72 178.624 19.73 178.704 19.75C178.784 19.77 178.834 19.83 178.854 19.93L178.944 20.74C178.964 20.82 178.974 20.9 178.974 20.98C178.974 21.04 178.974 21.11 178.974 21.19C179.014 21.41 178.894 21.52 178.614 21.52C178.054 21.52 177.514 21.53 176.994 21.55C176.474 21.55 175.924 21.56 175.344 21.58L164.844 21.85V28C164.844 28.6 164.894 28.99 164.994 29.17C165.094 29.35 165.304 29.45 165.624 29.47C166.124 29.49 166.754 29.5 167.514 29.5C168.274 29.5 169.064 29.49 169.884 29.47C170.704 29.45 171.464 29.43 172.164 29.41C172.884 29.37 173.434 29.34 173.814 29.32C174.894 29.28 175.834 29.22 176.634 29.14C177.454 29.06 178.114 28.97 178.614 28.87C178.814 28.83 178.944 28.84 179.004 28.9C179.064 28.94 179.104 29.01 179.124 29.11C179.164 29.33 179.184 29.55 179.184 29.77C179.204 29.97 179.224 30.2 179.244 30.46C179.244 30.58 179.204 30.66 179.124 30.7C179.064 30.74 178.894 30.76 178.614 30.76C176.474 30.76 174.214 30.79 171.834 30.85C169.474 30.89 167.144 30.93 164.844 30.97ZM159.594 40.27C159.374 40.29 159.224 40.27 159.144 40.21C159.064 40.15 159.004 40.06 158.964 39.94C158.884 39.72 158.814 39.5 158.754 39.28C158.694 39.04 158.624 38.75 158.544 38.41C158.524 38.37 158.534 38.32 158.574 38.26C158.614 38.18 158.684 38.15 158.784 38.17C159.544 38.27 160.584 38.34 161.904 38.38C163.224 38.4 164.674 38.41 166.254 38.41C166.894 38.41 167.544 38.41 168.204 38.41C168.884 38.41 169.574 38.4 170.274 38.38V35.89C170.274 35.11 170.244 34.43 170.184 33.85C170.124 33.27 170.054 32.88 169.974 32.68C169.894 32.48 169.964 32.38 170.184 32.38H171.984C172.104 32.38 172.164 32.46 172.164 32.62C172.164 32.64 172.164 32.66 172.164 32.68C172.124 33.2 172.094 33.7 172.074 34.18C172.054 34.66 172.044 35.16 172.044 35.68L172.014 38.35C173.534 38.31 174.994 38.26 176.394 38.2C177.794 38.12 179.054 38.03 180.174 37.93C181.294 37.83 182.154 37.73 182.754 37.63C182.954 37.59 183.084 37.6 183.144 37.66C183.204 37.72 183.244 37.8 183.264 37.9L183.444 39.34C183.444 39.44 183.414 39.53 183.354 39.61C183.294 39.69 183.134 39.73 182.874 39.73C182.194 39.71 181.404 39.7 180.504 39.7C179.604 39.7 178.644 39.7 177.624 39.7C175.124 39.7 172.704 39.73 170.364 39.79C168.024 39.83 165.924 39.89 164.064 39.97C162.204 40.05 160.714 40.15 159.594 40.27Z" fill="white"/>
<rect x="210" width="60" height="60" rx="10" fill="#432D2D" fill-opacity="0.76"/>
<path d="M227.568 34.57L226.908 33.88C226.828 33.8 226.858 33.7 226.998 33.58C228.218 33 229.428 32.27 230.628 31.39C231.828 30.49 232.938 29.51 233.958 28.45C234.978 27.37 235.828 26.26 236.508 25.12C237.188 23.98 237.608 22.88 237.768 21.82C237.788 21.6 237.708 21.49 237.528 21.49C236.668 21.51 235.818 21.55 234.978 21.61C234.158 21.67 233.318 21.73 232.458 21.79C231.858 21.83 231.248 21.88 230.628 21.94C230.028 22 229.408 22.06 228.768 22.12C228.568 22.14 228.438 22.12 228.378 22.06C228.318 21.98 228.268 21.89 228.228 21.79C228.208 21.77 228.198 21.75 228.198 21.73C228.118 21.51 228.058 21.33 228.018 21.19C227.978 21.03 227.918 20.78 227.838 20.44C227.818 20.4 227.828 20.35 227.868 20.29C227.908 20.23 227.978 20.21 228.078 20.23C228.958 20.31 229.908 20.35 230.928 20.35C231.948 20.33 232.968 20.29 233.988 20.23C235.008 20.15 235.958 20.06 236.838 19.96C237.058 19.92 237.308 19.88 237.588 19.84C237.868 19.78 238.018 19.75 238.038 19.75C238.138 19.71 238.248 19.71 238.368 19.75C238.528 19.79 238.738 19.87 238.998 19.99C239.258 20.09 239.498 20.19 239.718 20.29C239.938 20.39 240.068 20.45 240.108 20.47C240.308 20.55 240.378 20.68 240.318 20.86C240.178 21.28 240.048 21.66 239.928 22C239.808 22.32 239.648 22.71 239.448 23.17C239.028 24.21 238.368 25.39 237.468 26.71C236.568 28.01 235.388 29.35 233.928 30.73C232.468 32.09 230.668 33.37 228.528 34.57C228.368 34.67 228.208 34.73 228.048 34.75C227.888 34.77 227.728 34.71 227.568 34.57ZM244.788 45.25C244.708 45.25 244.668 45.2 244.668 45.1V37.21C244.668 37.07 244.648 36.98 244.608 36.94C244.588 36.9 244.488 36.88 244.308 36.88C243.848 36.88 243.208 36.89 242.388 36.91C241.568 36.93 240.698 36.96 239.778 37C238.858 37.02 237.988 37.05 237.168 37.09C236.368 37.11 235.758 37.13 235.338 37.15C234.838 37.19 234.288 37.23 233.688 37.27C233.108 37.31 232.568 37.35 232.068 37.39C231.868 37.41 231.738 37.39 231.678 37.33C231.618 37.25 231.568 37.16 231.528 37.06C231.508 37.04 231.498 37.02 231.498 37L231.198 35.71C231.178 35.67 231.188 35.62 231.228 35.56C231.268 35.5 231.338 35.48 231.438 35.5C231.758 35.54 232.338 35.57 233.178 35.59C234.038 35.61 235.018 35.62 236.118 35.62C237.218 35.6 238.328 35.57 239.448 35.53C240.568 35.49 241.578 35.44 242.478 35.38C243.378 35.3 244.028 35.21 244.428 35.11C244.448 35.11 244.478 35.1 244.518 35.08C244.558 35.08 244.598 35.08 244.638 35.08C244.678 35.06 244.748 35.06 244.848 35.08L246.618 35.35C246.718 35.37 246.768 35.41 246.768 35.47C246.788 35.51 246.798 35.55 246.798 35.59C246.798 35.61 246.798 35.62 246.798 35.62C246.738 36.18 246.688 36.75 246.648 37.33C246.628 37.91 246.618 38.44 246.618 38.92L246.588 44.68C246.588 44.92 246.538 45.06 246.438 45.1C246.358 45.14 246.268 45.17 246.168 45.19L244.788 45.25ZM244.908 33.37C244.828 33.37 244.788 33.32 244.788 33.22V21.46C244.788 20.7 244.758 20 244.698 19.36C244.658 18.72 244.588 18.3 244.488 18.1C244.448 18 244.448 17.93 244.488 17.89C244.548 17.83 244.618 17.8 244.698 17.8C244.898 17.8 245.188 17.8 245.568 17.8C245.968 17.8 246.328 17.81 246.648 17.83C246.748 17.83 246.798 17.91 246.798 18.07C246.738 18.81 246.698 19.46 246.678 20.02C246.678 20.56 246.678 21.19 246.678 21.91V25.57C247.218 25.57 247.798 25.55 248.418 25.51C249.058 25.45 249.648 25.39 250.188 25.33C250.748 25.25 251.168 25.17 251.448 25.09C251.628 25.07 251.728 25.13 251.748 25.27C251.788 25.53 251.818 25.79 251.838 26.05C251.858 26.31 251.878 26.57 251.898 26.83C251.898 27.05 251.808 27.16 251.628 27.16C251.348 27.12 250.918 27.1 250.338 27.1C249.758 27.08 249.138 27.07 248.478 27.07C247.838 27.07 247.238 27.09 246.678 27.13V32.62C246.678 32.92 246.658 33.1 246.618 33.16C246.598 33.22 246.538 33.26 246.438 33.28L244.908 33.37Z" fill="white"/>
<rect x="176" y="70" width="60" height="60" rx="10" fill="#432D2D" fill-opacity="0.76"/>
<path d="M193.265 106.04L192.455 105.35C192.375 105.27 192.405 105.18 192.545 105.08C192.565 105.06 192.575 105.05 192.575 105.05C193.955 104.03 195.215 102.89 196.355 101.63C197.495 100.35 198.465 99.03 199.265 97.67C200.085 96.31 200.675 94.99 201.035 93.71C201.195 93.13 201.345 92.48 201.485 91.76C201.625 91.04 201.695 90.49 201.695 90.11C201.695 89.99 201.725 89.91 201.785 89.87C201.845 89.81 201.905 89.8 201.965 89.84L204.035 90.35C204.135 90.37 204.175 90.48 204.155 90.68C204.075 90.96 203.955 91.33 203.795 91.79C203.635 92.25 203.475 92.72 203.315 93.2C203.155 93.66 203.015 94.06 202.895 94.4C202.735 94.8 202.555 95.23 202.355 95.69C202.155 96.13 201.935 96.59 201.695 97.07C202.655 97.79 203.645 98.56 204.665 99.38C205.685 100.2 206.615 100.97 207.455 101.69C208.295 102.41 208.925 103 209.345 103.46C209.425 103.56 209.485 103.68 209.525 103.82C209.585 103.94 209.565 104.07 209.465 104.21C209.285 104.43 209.085 104.63 208.865 104.81C208.665 104.99 208.455 105.17 208.235 105.35C208.115 105.45 208.015 105.43 207.935 105.29C207.615 104.81 207.185 104.26 206.645 103.64C206.105 103.02 205.505 102.38 204.845 101.72C204.205 101.06 203.545 100.43 202.865 99.83C202.205 99.23 201.585 98.71 201.005 98.27C200.265 99.51 199.335 100.8 198.215 102.14C197.115 103.46 195.775 104.75 194.195 106.01C194.095 106.09 193.955 106.16 193.775 106.22C193.615 106.28 193.445 106.22 193.265 106.04ZM212.405 113.3C212.325 113.3 212.285 113.25 212.285 113.15V91.49C212.285 90.73 212.255 90.03 212.195 89.39C212.155 88.73 212.085 88.3 211.985 88.1C211.945 88 211.945 87.93 211.985 87.89C212.045 87.83 212.115 87.8 212.195 87.8C212.315 87.8 212.515 87.81 212.795 87.83C213.095 87.83 213.385 87.84 213.665 87.86C213.945 87.86 214.105 87.86 214.145 87.86C214.245 87.86 214.295 87.94 214.295 88.1C214.235 88.84 214.195 89.49 214.175 90.05C214.175 90.59 214.175 91.22 214.175 91.94V112.55C214.175 112.85 214.155 113.03 214.115 113.09C214.095 113.15 214.035 113.19 213.935 113.21L212.405 113.3Z" fill="white"/>
<rect x="108" y="70" width="60" height="60" rx="10" fill="#432D2D" fill-opacity="0.76"/>
<path d="M140.955 112.52C140.875 112.52 140.835 112.47 140.835 112.37V99.56L139.095 99.62C138.615 99.64 138.065 99.69 137.445 99.77C136.845 99.83 136.305 99.88 135.825 99.92C135.605 99.94 135.465 99.93 135.405 99.89C135.365 99.85 135.335 99.78 135.315 99.68C135.295 99.66 135.285 99.64 135.285 99.62L135.105 98.72C134.305 100.12 133.275 101.63 132.015 103.25C130.755 104.85 129.155 106.33 127.215 107.69C126.915 107.93 126.605 107.93 126.285 107.69L125.565 107.03C125.485 106.95 125.515 106.85 125.655 106.73C126.755 106.09 127.775 105.31 128.715 104.39C129.675 103.47 130.545 102.49 131.325 101.45C132.105 100.39 132.775 99.34 133.335 98.3C133.915 97.24 134.365 96.26 134.685 95.36C135.005 94.46 135.175 93.71 135.195 93.11C135.195 92.89 135.105 92.78 134.925 92.78C134.105 92.82 133.345 92.88 132.645 92.96C131.965 93.02 131.275 93.08 130.575 93.14L127.515 93.41C127.315 93.43 127.185 93.41 127.125 93.35C127.065 93.27 127.015 93.18 126.975 93.08C126.955 93.06 126.945 93.04 126.945 93.02C126.865 92.8 126.805 92.62 126.765 92.48C126.725 92.34 126.665 92.1 126.585 91.76C126.565 91.72 126.575 91.67 126.615 91.61C126.655 91.55 126.725 91.53 126.825 91.55C128.125 91.67 129.395 91.7 130.635 91.64C131.875 91.58 133.145 91.47 134.445 91.31C134.685 91.29 134.935 91.25 135.195 91.19C135.475 91.13 135.615 91.1 135.615 91.1C135.715 91.06 135.825 91.06 135.945 91.1C136.185 91.18 136.495 91.28 136.875 91.4C137.255 91.5 137.485 91.57 137.565 91.61C137.725 91.69 137.795 91.82 137.775 92L137.085 94.19C136.945 94.61 136.745 95.16 136.485 95.84C136.225 96.5 135.875 97.25 135.435 98.09C135.835 98.11 136.345 98.13 136.965 98.15C137.585 98.15 138.235 98.14 138.915 98.12C139.615 98.1 140.255 98.08 140.835 98.06V92.24C140.835 91.48 140.815 90.78 140.775 90.14C140.735 89.5 140.665 89.08 140.565 88.88C140.525 88.78 140.525 88.71 140.565 88.67C140.625 88.61 140.695 88.58 140.775 88.58L142.545 88.61C142.645 88.65 142.695 88.73 142.695 88.85C142.655 89.43 142.635 89.95 142.635 90.41C142.635 90.87 142.635 91.35 142.635 91.85C142.635 91.97 142.635 92.1 142.635 92.24C142.635 92.38 142.635 92.53 142.635 92.69V111.77C142.635 112.07 142.615 112.25 142.575 112.31C142.555 112.37 142.495 112.41 142.395 112.43C142.335 112.43 142.195 112.44 141.975 112.46C141.775 112.46 141.575 112.47 141.375 112.49C141.175 112.51 141.035 112.52 140.955 112.52ZM145.485 113.3C145.405 113.3 145.365 113.25 145.365 113.15V91.46C145.365 90.7 145.345 90 145.305 89.36C145.285 88.72 145.225 88.3 145.125 88.1C145.085 88 145.085 87.93 145.125 87.89C145.185 87.83 145.255 87.8 145.335 87.8L147.105 87.83C147.205 87.87 147.255 87.95 147.255 88.07C147.215 88.67 147.185 89.21 147.165 89.69C147.165 90.17 147.165 90.67 147.165 91.19C147.165 91.31 147.165 91.43 147.165 91.55C147.165 91.67 147.165 91.79 147.165 91.91V112.55C147.165 112.85 147.145 113.03 147.105 113.09C147.085 113.15 147.025 113.19 146.925 113.21C146.865 113.21 146.725 113.21 146.505 113.21C146.305 113.23 146.105 113.25 145.905 113.27C145.705 113.29 145.565 113.3 145.485 113.3Z" fill="white"/>
<rect x="244" y="70" width="60" height="60" rx="10" fill="#432D2D" fill-opacity="0.76"/>
<path d="M261.391 103.82C261.171 103.84 261.031 103.83 260.971 103.79C260.911 103.75 260.851 103.64 260.791 103.46C260.711 103.24 260.641 103.04 260.581 102.86C260.541 102.66 260.481 102.39 260.401 102.05C260.381 102.01 260.391 101.96 260.431 101.9C260.471 101.84 260.541 101.82 260.641 101.84C260.941 101.88 261.441 101.91 262.141 101.93C262.841 101.93 263.651 101.92 264.571 101.9L264.361 96.86C264.341 96.1 264.281 95.47 264.181 94.97C264.101 94.47 264.011 94.12 263.911 93.92C263.871 93.82 263.871 93.75 263.911 93.71C263.971 93.65 264.041 93.62 264.121 93.62L266.071 93.65C266.171 93.65 266.221 93.72 266.221 93.86C266.201 94.4 266.181 94.84 266.161 95.18C266.141 95.5 266.131 95.82 266.131 96.14C266.131 96.44 266.131 96.84 266.131 97.34L266.101 101.87C266.741 101.83 267.471 101.78 268.291 101.72C269.131 101.64 269.901 101.56 270.601 101.48L270.871 96.92C270.911 96.16 270.921 95.46 270.901 94.82C270.901 94.18 270.861 93.76 270.781 93.56C270.741 93.46 270.741 93.39 270.781 93.35C270.841 93.29 270.911 93.26 270.991 93.26C271.091 93.26 271.291 93.27 271.591 93.29C271.911 93.31 272.211 93.33 272.491 93.35C272.791 93.35 272.961 93.35 273.001 93.35C273.141 93.37 273.191 93.47 273.151 93.65C273.051 94.29 272.961 94.92 272.881 95.54C272.801 96.14 272.731 96.8 272.671 97.52L272.341 101.24C274.261 100.94 276.001 100.55 277.561 100.07C277.701 100.01 277.791 100.06 277.831 100.22L277.951 101.09C277.991 101.27 277.971 101.39 277.891 101.45C277.831 101.51 277.741 101.56 277.621 101.6C277.181 101.74 276.541 101.9 275.701 102.08C274.881 102.26 273.961 102.43 272.941 102.59C271.921 102.75 270.881 102.9 269.821 103.04C268.781 103.16 267.821 103.25 266.941 103.31C265.861 103.39 264.881 103.48 264.001 103.58C263.141 103.68 262.271 103.76 261.391 103.82ZM279.061 107.45C278.981 107.45 278.941 107.4 278.941 107.3V91.46C278.941 90.7 278.911 90 278.851 89.36C278.811 88.72 278.741 88.3 278.641 88.1C278.601 88 278.601 87.93 278.641 87.89C278.701 87.83 278.771 87.8 278.851 87.8C279.131 87.8 279.461 87.8 279.841 87.8C280.221 87.8 280.541 87.81 280.801 87.83C280.901 87.83 280.951 87.91 280.951 88.07C280.891 88.81 280.851 89.46 280.831 90.02C280.831 90.56 280.831 91.19 280.831 91.91V96.44C281.391 96.44 281.991 96.42 282.631 96.38C283.271 96.34 283.861 96.29 284.401 96.23C284.961 96.17 285.371 96.1 285.631 96.02C285.811 96 285.911 96.06 285.931 96.2C285.971 96.46 285.991 96.72 285.991 96.98C286.011 97.24 286.031 97.5 286.051 97.76C286.051 97.98 285.961 98.09 285.781 98.09C285.501 98.05 285.071 98.03 284.491 98.03C283.931 98.01 283.321 98 282.661 98C282.001 98 281.391 98.02 280.831 98.06V106.7C280.831 107 280.811 107.18 280.771 107.24C280.751 107.3 280.691 107.34 280.591 107.36L279.061 107.45ZM269.551 114.5C268.911 114.5 268.421 114.26 268.081 113.78C267.761 113.32 267.601 112.66 267.601 111.8V109.43C267.601 108.73 267.571 108.15 267.511 107.69C267.451 107.23 267.391 106.9 267.331 106.7C267.271 106.5 267.341 106.4 267.541 106.4C267.661 106.4 267.861 106.41 268.141 106.43C268.441 106.43 268.721 106.44 268.981 106.46C269.261 106.48 269.411 106.49 269.431 106.49C269.531 106.49 269.581 106.59 269.581 106.79C269.541 107.25 269.511 107.66 269.491 108.02C269.491 108.36 269.491 108.79 269.491 109.31V111.62C269.491 112.12 269.551 112.47 269.671 112.67C269.811 112.85 270.031 112.95 270.331 112.97C270.891 112.99 271.571 113 272.371 113C273.191 113.02 274.041 113.02 274.921 113C275.821 112.96 276.671 112.92 277.471 112.88C278.311 112.84 279.181 112.77 280.081 112.67C280.981 112.55 281.671 112.43 282.151 112.31C282.351 112.27 282.481 112.28 282.541 112.34C282.601 112.4 282.641 112.48 282.661 112.58L282.901 113.99C282.901 114.09 282.871 114.17 282.811 114.23C282.771 114.29 282.611 114.32 282.331 114.32C280.351 114.32 278.311 114.35 276.211 114.41C274.111 114.47 271.891 114.5 269.551 114.5ZM262.141 92.54C261.941 92.58 261.811 92.57 261.751 92.51C261.691 92.43 261.641 92.33 261.601 92.21C261.581 92.19 261.571 92.17 261.571 92.15C261.491 91.93 261.431 91.74 261.391 91.58C261.351 91.42 261.301 91.19 261.241 90.89C261.221 90.75 261.301 90.68 261.481 90.68C262.041 90.72 262.661 90.75 263.341 90.77C264.021 90.79 264.841 90.79 265.801 90.77C266.741 90.75 267.651 90.73 268.531 90.71C269.431 90.67 270.221 90.63 270.901 90.59C271.561 90.55 272.251 90.5 272.971 90.44C273.711 90.38 274.461 90.3 275.221 90.2C275.281 90.18 275.351 90.19 275.431 90.23C275.511 90.25 275.561 90.31 275.581 90.41C275.681 90.83 275.751 91.29 275.791 91.79C275.791 92.01 275.671 92.12 275.431 92.12C275.051 92.1 274.601 92.09 274.081 92.09C273.561 92.07 273.061 92.06 272.581 92.06C271.961 92.06 271.161 92.08 270.181 92.12C269.201 92.14 268.181 92.17 267.121 92.21C266.081 92.25 265.111 92.3 264.211 92.36C263.311 92.42 262.621 92.48 262.141 92.54Z" fill="white"/>
<rect x="278" width="60" height="60" rx="10" fill="#E8E4DE"/>
<rect x="312" y="70" width="60" height="60" rx="10" fill="#E8E4DE"/>
<rect x="346" width="60" height="60" rx="10" fill="#E8E4DE"/>
<rect x="74" width="60" height="60" rx="10" fill="#E8E4DE"/>
<rect x="40" y="70" width="60" height="60" rx="10" fill="#E8E4DE"/>
<rect x="6" width="60" height="60" rx="10" fill="#E8E4DE"/>
<path d="M0 70H22C27.5228 70 32 74.4772 32 80V120C32 125.523 27.5228 130 22 130H0V70Z" fill="#E8E4DE"/>
<path d="M380 80C380 74.4772 384.477 70 390 70H412V130H390C384.477 130 380 125.523 380 120V80Z" fill="#E8E4DE"/>
</svg>
