<svg width="412" height="308" viewBox="0 0 412 308" fill="none" xmlns="http://www.w3.org/2000/svg">
<path d="M355 258C355 252.477 359.477 248 365 248H412V308H365C359.477 308 355 303.523 355 298V258Z" fill="#E8E4DE"/>
<rect x="287" y="248" width="60" height="60" rx="10" fill="#E8E4DE"/>
<rect x="219" y="248" width="60" height="60" rx="10" fill="#E8E4DE"/>
<rect x="151" y="248" width="60" height="60" rx="10" fill="#E8E4DE"/>
<rect x="83" y="248" width="60" height="60" rx="10" fill="#E8E4DE"/>
<rect x="15" y="248" width="60" height="60" rx="10" fill="#E8E4DE"/>
<path d="M0 248V248C3.86599 248 7 251.134 7 255V301C7 304.866 3.86599 308 0 308V308V248Z" fill="#E8E4DE"/>
<path d="M148.838 41H113.162C106.445 41 101 46.5964 101 53.5V88.5C101 95.4036 106.445 101 113.162 101H148.838C155.555 101 161 95.4036 161 88.5V53.5C161 46.5964 155.555 41 148.838 41Z" fill="#432D2D"/>
<path d="M124.488 71.8333C123.732 71.8558 123.202 71.6441 122.899 71.1999C122.596 70.7557 122.445 69.9999 122.445 68.9332V63.5666C122.445 62.7891 122.391 62.1224 122.283 61.5666C122.175 60.9891 122.067 60.5891 121.958 60.3666C121.893 60.2333 121.893 60.1224 121.958 60.0333C122.023 59.9224 122.11 59.8666 122.218 59.8666C122.369 59.8666 122.639 59.8774 123.029 59.8999C123.418 59.9224 123.829 59.9441 124.261 59.9666C124.996 59.9891 125.883 59.9999 126.921 59.9999C127.958 59.9774 129.061 59.9441 130.229 59.8999C131.418 59.8558 132.575 59.8108 133.699 59.7666C134.975 59.7224 136.078 59.6558 137.007 59.5666C137.937 59.4774 138.683 59.3999 139.245 59.3333C139.31 59.3333 139.386 59.3441 139.472 59.3666C139.559 59.3891 139.613 59.4558 139.634 59.5666L139.731 60.4666C139.753 60.5558 139.764 60.6441 139.764 60.7333C139.764 60.7999 139.764 60.8774 139.764 60.9666C139.808 61.2108 139.678 61.3333 139.375 61.3333C138.77 61.3333 138.186 61.3441 137.623 61.3666C137.061 61.3666 136.467 61.3774 135.839 61.3999L124.488 61.6999V68.5333C124.488 69.1999 124.542 69.6333 124.65 69.8333C124.759 70.0333 124.986 70.1441 125.331 70.1666C125.872 70.1891 126.553 70.1999 127.375 70.1999C128.197 70.1999 129.05 70.1891 129.937 70.1666C130.824 70.1441 131.645 70.1224 132.402 70.0999C133.18 70.0558 133.775 70.0224 134.185 69.9999C135.353 69.9557 136.37 69.8891 137.234 69.7999C138.121 69.7108 138.835 69.6108 139.375 69.4999C139.591 69.4558 139.731 69.4666 139.796 69.5332C139.861 69.5774 139.905 69.6557 139.926 69.7666C139.97 70.0107 139.991 70.2558 139.991 70.4999C140.013 70.7224 140.035 70.9774 140.056 71.2666C140.056 71.3999 140.013 71.4891 139.926 71.5333C139.861 71.5774 139.678 71.5999 139.375 71.5999C137.061 71.5999 134.618 71.6333 132.045 71.6999C129.494 71.7441 126.975 71.7891 124.488 71.8333ZM118.812 82.1666C118.575 82.1891 118.413 82.1666 118.326 82.0999C118.24 82.0333 118.175 81.9333 118.131 81.7999C118.045 81.5558 117.969 81.3107 117.904 81.0666C117.839 80.7999 117.764 80.4774 117.677 80.0999C117.656 80.0558 117.667 79.9999 117.71 79.9332C117.753 79.8441 117.829 79.8108 117.937 79.8333C118.759 79.9441 119.883 80.0224 121.31 80.0666C122.737 80.0891 124.305 80.0999 126.012 80.0999C126.705 80.0999 127.407 80.0999 128.121 80.0999C128.856 80.0999 129.602 80.0891 130.358 80.0666V77.2999C130.358 76.4333 130.326 75.6774 130.261 75.0333C130.196 74.3891 130.121 73.9558 130.034 73.7333C129.948 73.5108 130.023 73.3999 130.261 73.3999H132.207C132.337 73.3999 132.402 73.4891 132.402 73.6666C132.402 73.6891 132.402 73.7108 132.402 73.7333C132.359 74.3108 132.326 74.8666 132.304 75.3999C132.283 75.9333 132.272 76.4891 132.272 77.0666L132.239 80.0333C133.883 79.9891 135.462 79.9333 136.975 79.8666C138.488 79.7774 139.85 79.6774 141.061 79.5666C142.272 79.4558 143.202 79.3441 143.85 79.2332C144.067 79.1891 144.207 79.1999 144.272 79.2666C144.337 79.3333 144.381 79.4224 144.402 79.5332L144.596 81.1332C144.596 81.2441 144.564 81.3441 144.499 81.4332C144.434 81.5224 144.261 81.5666 143.98 81.5666C143.245 81.5441 142.391 81.5333 141.418 81.5333C140.445 81.5333 139.407 81.5333 138.304 81.5333C135.602 81.5333 132.985 81.5666 130.456 81.6333C127.926 81.6774 125.656 81.7441 123.645 81.8333C121.634 81.9224 120.024 82.0333 118.812 82.1666Z" fill="#D9D9D9"/>
<path d="M216.838 41H181.162C174.445 41 169 46.5964 169 53.5V88.5C169 95.4036 174.445 101 181.162 101H216.838C223.555 101 229 95.4036 229 88.5V53.5C229 46.5964 223.555 41 216.838 41Z" fill="#D9D9D9"/>
<path d="M186.428 74.6333L185.714 73.8667C185.627 73.7775 185.66 73.6667 185.811 73.5333C187.131 72.8892 188.438 72.0775 189.736 71.1C191.033 70.1 192.233 69.0108 193.336 67.8333C194.438 66.6333 195.357 65.4 196.092 64.1333C196.828 62.8667 197.282 61.6442 197.455 60.4667C197.477 60.2225 197.39 60.1 197.195 60.1C196.265 60.1225 195.347 60.1667 194.438 60.2333C193.552 60.3 192.644 60.3667 191.714 60.4333C191.065 60.4775 190.406 60.5333 189.736 60.6C189.087 60.6667 188.417 60.7333 187.725 60.8C187.508 60.8225 187.368 60.8 187.303 60.7333C187.238 60.6442 187.184 60.5442 187.141 60.4333C187.119 60.4108 187.109 60.3892 187.109 60.3667C187.022 60.1225 186.957 59.9225 186.914 59.7667C186.871 59.5892 186.806 59.3108 186.72 58.9333C186.698 58.8892 186.709 58.8333 186.752 58.7667C186.795 58.7 186.871 58.6775 186.979 58.7C187.93 58.7892 188.957 58.8333 190.06 58.8333C191.163 58.8108 192.265 58.7667 193.368 58.7C194.471 58.6108 195.498 58.5108 196.449 58.4C196.687 58.3558 196.958 58.3108 197.26 58.2667C197.562 58.2 197.725 58.1667 197.747 58.1667C197.854 58.1225 197.974 58.1225 198.103 58.1667C198.276 58.2108 198.503 58.3 198.784 58.4333C199.066 58.5442 199.325 58.6558 199.563 58.7667C199.8 58.8775 199.941 58.9442 199.984 58.9667C200.201 59.0558 200.276 59.2 200.211 59.4C200.06 59.8667 199.92 60.2892 199.79 60.6667C199.66 61.0225 199.487 61.4558 199.271 61.9667C198.817 63.1225 198.103 64.4333 197.13 65.9C196.157 67.3442 194.882 68.8333 193.303 70.3667C191.725 71.8775 189.779 73.3 187.465 74.6333C187.293 74.7442 187.119 74.8108 186.947 74.8333C186.774 74.8558 186.6 74.7892 186.428 74.6333ZM205.044 86.5C204.957 86.5 204.914 86.4442 204.914 86.3333V77.5667C204.914 77.4108 204.892 77.3108 204.849 77.2667C204.827 77.2225 204.72 77.2 204.525 77.2C204.028 77.2 203.335 77.2108 202.449 77.2333C201.563 77.2558 200.622 77.2892 199.628 77.3333C198.633 77.3558 197.692 77.3892 196.806 77.4333C195.941 77.4558 195.282 77.4775 194.828 77.5C194.287 77.5442 193.692 77.5892 193.044 77.6333C192.417 77.6775 191.833 77.7225 191.292 77.7667C191.076 77.7892 190.936 77.7667 190.871 77.7C190.806 77.6108 190.752 77.5108 190.709 77.4C190.687 77.3775 190.676 77.3558 190.676 77.3333L190.352 75.9C190.33 75.8558 190.341 75.8 190.384 75.7333C190.427 75.6667 190.504 75.6442 190.611 75.6667C190.958 75.7108 191.584 75.7442 192.492 75.7667C193.422 75.7892 194.481 75.8 195.671 75.8C196.86 75.7775 198.06 75.7442 199.271 75.7C200.481 75.6558 201.574 75.6 202.547 75.5333C203.52 75.4442 204.222 75.3442 204.655 75.2333C204.677 75.2333 204.709 75.2225 204.752 75.2C204.795 75.2 204.839 75.2 204.882 75.2C204.925 75.1775 205.001 75.1775 205.109 75.2L207.022 75.5C207.13 75.5225 207.184 75.5667 207.184 75.6333C207.206 75.6775 207.217 75.7225 207.217 75.7667C207.217 75.7892 207.217 75.8 207.217 75.8C207.152 76.4225 207.098 77.0558 207.055 77.7C207.033 78.3442 207.022 78.9333 207.022 79.4667L206.99 85.8667C206.99 86.1333 206.935 86.2892 206.828 86.3333C206.741 86.3775 206.644 86.4108 206.536 86.4333L205.044 86.5ZM205.174 73.3C205.087 73.3 205.044 73.2442 205.044 73.1333V60.0667C205.044 59.2225 205.011 58.4442 204.947 57.7333C204.904 57.0225 204.827 56.5558 204.72 56.3333C204.677 56.2225 204.677 56.1442 204.72 56.1C204.784 56.0333 204.86 56 204.947 56C205.163 56 205.476 56 205.887 56C206.319 56 206.708 56.0108 207.055 56.0333C207.162 56.0333 207.217 56.1225 207.217 56.3C207.152 57.1225 207.109 57.8442 207.087 58.4667C207.087 59.0667 207.087 59.7667 207.087 60.5667V64.6333C207.671 64.6333 208.298 64.6108 208.968 64.5667C209.66 64.5 210.298 64.4333 210.882 64.3667C211.487 64.2775 211.941 64.1892 212.244 64.1C212.438 64.0775 212.546 64.1442 212.568 64.3C212.611 64.5892 212.644 64.8775 212.665 65.1667C212.687 65.4558 212.708 65.7442 212.73 66.0333C212.73 66.2775 212.633 66.4 212.438 66.4C212.136 66.3558 211.671 66.3333 211.044 66.3333C210.417 66.3108 209.747 66.3 209.033 66.3C208.341 66.3 207.693 66.3225 207.087 66.3667V72.4667C207.087 72.8 207.065 73 207.022 73.0667C207 73.1333 206.935 73.1775 206.828 73.2L205.174 73.3Z" fill="#432D2D" fill-opacity="0.76"/>
<path d="M284.838 41H249.162C242.445 41 237 46.5964 237 53.5V88.5C237 95.4036 242.445 101 249.162 101H284.838C291.555 101 297 95.4036 297 88.5V53.5C297 46.5964 291.555 41 284.838 41Z" fill="#E1C9A9"/>
<path d="M273.491 56.8333L262.853 85.1666H261.167L271.772 56.8333H273.491Z" fill="#432D2D"/>
<rect x="33" y="41" width="60" height="60" rx="10" fill="#E8E4DE" fill-opacity="0.98"/>
<rect x="305" y="41" width="60" height="60" rx="10" fill="#E8E4DE"/>
<path d="M373 51C373 45.4772 377.477 41 383 41H412V101H383C377.477 101 373 96.5228 373 91V51Z" fill="#E8E4DE"/>
<path d="M0 41H15C20.5228 41 25 45.4772 25 51V91C25 96.5228 20.5228 101 15 101H0V41Z" fill="#E8E4DE"/>
<path d="M232.838 110H197.162C190.445 110 185 115.596 185 122.5V157.5C185 164.404 190.445 170 197.162 170H232.838C239.555 170 245 164.404 245 157.5V122.5C245 115.596 239.555 110 232.838 110Z" fill="#432D2D"/>
<path d="M208.488 140.833C207.732 140.856 207.202 140.644 206.899 140.2C206.596 139.756 206.445 139 206.445 137.933V132.567C206.445 131.789 206.391 131.122 206.283 130.567C206.175 129.989 206.067 129.589 205.958 129.367C205.893 129.233 205.893 129.122 205.958 129.033C206.023 128.922 206.11 128.867 206.218 128.867C206.369 128.867 206.639 128.877 207.029 128.9C207.418 128.922 207.829 128.944 208.261 128.967C208.996 128.989 209.883 129 210.921 129C211.958 128.977 213.061 128.944 214.229 128.9C215.418 128.856 216.575 128.811 217.699 128.767C218.975 128.722 220.078 128.656 221.007 128.567C221.937 128.477 222.683 128.4 223.245 128.333C223.31 128.333 223.386 128.344 223.472 128.367C223.559 128.389 223.613 128.456 223.634 128.567L223.731 129.467C223.753 129.556 223.764 129.644 223.764 129.733C223.764 129.8 223.764 129.877 223.764 129.967C223.808 130.211 223.678 130.333 223.375 130.333C222.77 130.333 222.186 130.344 221.623 130.367C221.061 130.367 220.467 130.377 219.839 130.4L208.488 130.7V137.533C208.488 138.2 208.542 138.633 208.65 138.833C208.759 139.033 208.986 139.144 209.331 139.167C209.872 139.189 210.553 139.2 211.375 139.2C212.197 139.2 213.05 139.189 213.937 139.167C214.824 139.144 215.645 139.122 216.402 139.1C217.18 139.056 217.775 139.022 218.185 139C219.353 138.956 220.37 138.889 221.234 138.8C222.121 138.711 222.835 138.611 223.375 138.5C223.591 138.456 223.731 138.467 223.796 138.533C223.861 138.577 223.905 138.656 223.926 138.767C223.97 139.011 223.991 139.256 223.991 139.5C224.013 139.722 224.035 139.977 224.056 140.267C224.056 140.4 224.013 140.489 223.926 140.533C223.861 140.577 223.678 140.6 223.375 140.6C221.061 140.6 218.618 140.633 216.045 140.7C213.494 140.744 210.975 140.789 208.488 140.833ZM202.812 151.167C202.575 151.189 202.413 151.167 202.326 151.1C202.24 151.033 202.175 150.933 202.131 150.8C202.045 150.556 201.969 150.311 201.904 150.067C201.839 149.8 201.764 149.477 201.677 149.1C201.656 149.056 201.667 149 201.71 148.933C201.753 148.844 201.829 148.811 201.937 148.833C202.759 148.944 203.883 149.022 205.31 149.067C206.737 149.089 208.305 149.1 210.012 149.1C210.705 149.1 211.407 149.1 212.121 149.1C212.856 149.1 213.602 149.089 214.358 149.067V146.3C214.358 145.433 214.326 144.677 214.261 144.033C214.196 143.389 214.121 142.956 214.034 142.733C213.948 142.511 214.023 142.4 214.261 142.4H216.207C216.337 142.4 216.402 142.489 216.402 142.667C216.402 142.689 216.402 142.711 216.402 142.733C216.359 143.311 216.326 143.867 216.304 144.4C216.283 144.933 216.272 145.489 216.272 146.067L216.239 149.033C217.883 148.989 219.462 148.933 220.975 148.867C222.488 148.777 223.85 148.677 225.061 148.567C226.272 148.456 227.202 148.344 227.85 148.233C228.067 148.189 228.207 148.2 228.272 148.267C228.337 148.333 228.381 148.422 228.402 148.533L228.596 150.133C228.596 150.244 228.564 150.344 228.499 150.433C228.434 150.522 228.261 150.567 227.98 150.567C227.245 150.544 226.391 150.533 225.418 150.533C224.445 150.533 223.407 150.533 222.304 150.533C219.602 150.533 216.985 150.567 214.456 150.633C211.926 150.677 209.656 150.744 207.645 150.833C205.634 150.922 204.024 151.033 202.812 151.167Z" fill="#D9D9D9"/>
<path d="M300.838 110H265.162C258.445 110 253 115.596 253 122.5V157.5C253 164.404 258.445 170 265.162 170H300.838C307.555 170 313 164.404 313 157.5V122.5C313 115.596 307.555 110 300.838 110Z" fill="#D9D9D9"/>
<path d="M270.428 143.633L269.714 142.867C269.627 142.777 269.66 142.667 269.811 142.533C271.131 141.889 272.438 141.078 273.736 140.1C275.033 139.1 276.233 138.011 277.336 136.833C278.438 135.633 279.357 134.4 280.092 133.133C280.828 131.867 281.282 130.644 281.455 129.467C281.477 129.223 281.39 129.1 281.195 129.1C280.265 129.122 279.347 129.167 278.438 129.233C277.552 129.3 276.644 129.367 275.714 129.433C275.065 129.477 274.406 129.533 273.736 129.6C273.087 129.667 272.417 129.733 271.725 129.8C271.508 129.823 271.368 129.8 271.303 129.733C271.238 129.644 271.184 129.544 271.141 129.433C271.119 129.411 271.109 129.389 271.109 129.367C271.022 129.122 270.957 128.922 270.914 128.767C270.871 128.589 270.806 128.311 270.72 127.933C270.698 127.889 270.709 127.833 270.752 127.767C270.795 127.7 270.871 127.677 270.979 127.7C271.93 127.789 272.957 127.833 274.06 127.833C275.163 127.811 276.265 127.767 277.368 127.7C278.471 127.611 279.498 127.511 280.449 127.4C280.687 127.356 280.958 127.311 281.26 127.267C281.562 127.2 281.725 127.167 281.747 127.167C281.854 127.122 281.974 127.122 282.103 127.167C282.276 127.211 282.503 127.3 282.784 127.433C283.066 127.544 283.325 127.656 283.563 127.767C283.8 127.877 283.941 127.944 283.984 127.967C284.201 128.056 284.276 128.2 284.211 128.4C284.06 128.867 283.92 129.289 283.79 129.667C283.66 130.022 283.487 130.456 283.271 130.967C282.817 132.122 282.103 133.433 281.13 134.9C280.157 136.344 278.882 137.833 277.303 139.367C275.725 140.877 273.779 142.3 271.465 143.633C271.293 143.744 271.119 143.811 270.947 143.833C270.774 143.856 270.6 143.789 270.428 143.633ZM289.044 155.5C288.957 155.5 288.914 155.444 288.914 155.333V146.567C288.914 146.411 288.892 146.311 288.849 146.267C288.827 146.222 288.72 146.2 288.525 146.2C288.028 146.2 287.335 146.211 286.449 146.233C285.563 146.256 284.622 146.289 283.628 146.333C282.633 146.356 281.692 146.389 280.806 146.433C279.941 146.456 279.282 146.477 278.828 146.5C278.287 146.544 277.692 146.589 277.044 146.633C276.417 146.677 275.833 146.723 275.292 146.767C275.076 146.789 274.936 146.767 274.871 146.7C274.806 146.611 274.752 146.511 274.709 146.4C274.687 146.377 274.676 146.356 274.676 146.333L274.352 144.9C274.33 144.856 274.341 144.8 274.384 144.733C274.427 144.667 274.504 144.644 274.611 144.667C274.958 144.711 275.584 144.744 276.492 144.767C277.422 144.789 278.481 144.8 279.671 144.8C280.86 144.778 282.06 144.744 283.271 144.7C284.481 144.656 285.574 144.6 286.547 144.533C287.52 144.444 288.222 144.344 288.655 144.233C288.677 144.233 288.709 144.223 288.752 144.2C288.795 144.2 288.839 144.2 288.882 144.2C288.925 144.178 289.001 144.178 289.109 144.2L291.022 144.5C291.13 144.523 291.184 144.567 291.184 144.633C291.206 144.678 291.217 144.722 291.217 144.767C291.217 144.789 291.217 144.8 291.217 144.8C291.152 145.423 291.098 146.056 291.055 146.7C291.033 147.344 291.022 147.933 291.022 148.467L290.99 154.867C290.99 155.133 290.935 155.289 290.828 155.333C290.741 155.378 290.644 155.411 290.536 155.433L289.044 155.5ZM289.174 142.3C289.087 142.3 289.044 142.244 289.044 142.133V129.067C289.044 128.222 289.011 127.444 288.947 126.733C288.904 126.023 288.827 125.556 288.72 125.333C288.677 125.223 288.677 125.144 288.72 125.1C288.784 125.033 288.86 125 288.947 125C289.163 125 289.476 125 289.887 125C290.319 125 290.708 125.011 291.055 125.033C291.162 125.033 291.217 125.123 291.217 125.3C291.152 126.123 291.109 126.844 291.087 127.467C291.087 128.067 291.087 128.767 291.087 129.567V133.633C291.671 133.633 292.298 133.611 292.968 133.567C293.66 133.5 294.298 133.433 294.882 133.367C295.487 133.278 295.941 133.189 296.244 133.1C296.438 133.077 296.546 133.144 296.568 133.3C296.611 133.589 296.644 133.877 296.665 134.167C296.687 134.456 296.708 134.744 296.73 135.033C296.73 135.278 296.633 135.4 296.438 135.4C296.136 135.356 295.671 135.333 295.044 135.333C294.417 135.311 293.747 135.3 293.033 135.3C292.341 135.3 291.693 135.322 291.087 135.367V141.467C291.087 141.8 291.065 142 291.022 142.067C291 142.133 290.935 142.177 290.828 142.2L289.174 142.3Z" fill="#432D2D" fill-opacity="0.76"/>
<rect x="321" y="110" width="60" height="60" rx="10" fill="#E8E4DE"/>
<rect x="49" y="110" width="60" height="60" rx="10" fill="#E8E4DE"/>
<path d="M389 120C389 114.477 393.477 110 399 110H412V170H399C393.477 170 389 165.523 389 160V120Z" fill="#E8E4DE"/>
<path d="M0 110H31C36.5228 110 41 114.477 41 120V160C41 165.523 36.5228 170 31 170H0V110Z" fill="#E8E4DE"/>
<path d="M164.838 110H129.162C122.445 110 117 115.596 117 122.5V157.5C117 164.404 122.445 170 129.162 170H164.838C171.555 170 177 164.404 177 157.5V122.5C177 115.596 171.555 110 164.838 110Z" fill="#E1C9A9" fill-opacity="0.76"/>
<path d="M404 187C404 182.582 407.582 179 412 179V179V239V239C407.582 239 404 235.418 404 231V187Z" fill="#E8E4DE"/>
<rect x="336" y="179" width="60" height="60" rx="10" fill="#E8E4DE"/>
<rect x="268" y="179" width="60" height="60" rx="10" fill="#E8E4DE"/>
<rect x="200" y="179" width="60" height="60" rx="10" fill="#E8E4DE"/>
<rect x="132" y="179" width="60" height="60" rx="10" fill="#E8E4DE"/>
<rect x="64" y="179" width="60" height="60" rx="10" fill="#E8E4DE"/>
<path d="M0 179H46C51.5228 179 56 183.477 56 189V229C56 234.523 51.5228 239 46 239H0V179Z" fill="#E8E4DE"/>
<path d="M399 10C399 4.47715 403.477 0 409 0H412V35H409C403.477 35 399 30.5228 399 25V10Z" fill="#E8E4DE"/>
<rect x="331" width="60" height="35" rx="10" fill="#E8E4DE"/>
<rect x="263" width="60" height="35" rx="10" fill="#E8E4DE"/>
<rect x="195" width="60" height="35" rx="10" fill="#E8E4DE"/>
<rect x="127" width="60" height="35" rx="10" fill="#E8E4DE"/>
<rect x="59" width="60" height="35" rx="10" fill="#E8E4DE"/>
<path d="M0 0H41C46.5228 0 51 4.47715 51 10V25C51 30.5228 46.5228 35 41 35H0V0Z" fill="#E8E4DE"/>
</svg>
