<svg width="412" height="130" viewBox="0 0 412 130" fill="none" xmlns="http://www.w3.org/2000/svg">
<rect x="142" width="60" height="60" rx="10" fill="#432D2D" fill-opacity="0.76"/>
<path d="M165.571 30.67C164.431 30.69 163.381 30.48 162.421 30.04C161.481 29.58 160.721 28.93 160.141 28.09C159.581 27.25 159.301 26.28 159.301 25.18C159.301 24.1 159.591 23.14 160.171 22.3C160.751 21.44 161.511 20.76 162.451 20.26C163.411 19.74 164.461 19.47 165.601 19.45C166.761 19.41 167.811 19.61 168.751 20.05C169.711 20.47 170.471 21.1 171.031 21.94C171.611 22.76 171.901 23.76 171.901 24.94C171.901 26 171.611 26.96 171.031 27.82C170.451 28.68 169.681 29.36 168.721 29.86C167.761 30.36 166.711 30.63 165.571 30.67ZM166.771 44.8C166.151 44.78 165.661 44.57 165.301 44.17C164.941 43.77 164.761 43.14 164.761 42.28V40.75C164.761 40.43 164.741 40.11 164.701 39.79C164.661 39.47 164.571 39.18 164.431 38.92C164.391 38.84 164.391 38.76 164.431 38.68C164.471 38.6 164.561 38.56 164.701 38.56C165.221 38.58 165.891 38.6 166.711 38.62C167.531 38.62 168.431 38.62 169.411 38.62C170.391 38.62 171.361 38.61 172.321 38.59C173.301 38.55 174.191 38.51 174.991 38.47C175.811 38.43 176.461 38.37 176.941 38.29L177.031 35.71C177.031 35.69 177.031 35.66 177.031 35.62C177.031 35.52 177.021 35.46 177.001 35.44C176.981 35.4 176.891 35.38 176.731 35.38C176.291 35.38 175.661 35.39 174.841 35.41C174.021 35.43 173.141 35.46 172.201 35.5C171.281 35.52 170.401 35.55 169.561 35.59C168.721 35.61 168.041 35.64 167.521 35.68L165.211 35.83C164.991 35.85 164.851 35.83 164.791 35.77C164.731 35.69 164.681 35.58 164.641 35.44L164.461 34.33C164.421 34.17 164.501 34.1 164.701 34.12C165.041 34.14 165.561 34.16 166.261 34.18C166.981 34.2 167.801 34.21 168.721 34.21C169.661 34.19 170.631 34.16 171.631 34.12C172.631 34.08 173.591 34.03 174.511 33.97C175.431 33.91 176.231 33.83 176.911 33.73C176.951 33.73 176.991 33.72 177.031 33.7C177.171 33.68 177.281 33.68 177.361 33.7L178.891 33.94C178.991 33.96 179.041 34 179.041 34.06C179.061 34.1 179.071 34.14 179.071 34.18C179.071 34.2 179.071 34.21 179.071 34.21C178.971 35.11 178.891 35.96 178.831 36.76C178.771 37.56 178.711 38.41 178.651 39.31C178.631 39.53 178.571 39.67 178.471 39.73C178.371 39.77 178.271 39.79 178.171 39.79C177.511 39.79 176.691 39.8 175.711 39.82C174.731 39.84 173.691 39.86 172.591 39.88C171.511 39.9 170.451 39.93 169.411 39.97C168.371 39.99 167.451 40.01 166.651 40.03V42.16C166.651 42.62 166.691 42.91 166.771 43.03C166.871 43.17 167.091 43.25 167.431 43.27C168.731 43.31 170.111 43.32 171.571 43.3C173.031 43.28 174.411 43.23 175.711 43.15C176.531 43.11 177.281 43.05 177.961 42.97C178.641 42.89 179.241 42.78 179.761 42.64C179.961 42.6 180.091 42.61 180.151 42.67C180.211 42.73 180.251 42.81 180.271 42.91L180.451 44.17C180.471 44.27 180.441 44.36 180.361 44.44C180.281 44.52 180.101 44.56 179.821 44.56C178.421 44.56 176.961 44.57 175.441 44.59C173.921 44.63 172.421 44.66 170.941 44.68C169.481 44.72 168.091 44.76 166.771 44.8ZM165.601 29.17C166.821 29.13 167.841 28.73 168.661 27.97C169.481 27.21 169.891 26.2 169.891 24.94C169.891 23.56 169.471 22.54 168.631 21.88C167.811 21.22 166.791 20.91 165.571 20.95C164.371 20.99 163.351 21.39 162.511 22.15C161.671 22.91 161.251 23.91 161.251 25.15C161.251 26.47 161.671 27.48 162.511 28.18C163.371 28.88 164.401 29.21 165.601 29.17ZM177.061 32.17C176.981 32.17 176.941 32.12 176.941 32.02V21.46C176.941 20.7 176.911 20 176.851 19.36C176.811 18.72 176.741 18.3 176.641 18.1C176.601 18 176.601 17.93 176.641 17.89C176.701 17.83 176.771 17.8 176.851 17.8C177.011 17.8 177.281 17.8 177.661 17.8C178.061 17.8 178.441 17.81 178.801 17.83C178.901 17.83 178.951 17.91 178.951 18.07C178.891 18.81 178.851 19.46 178.831 20.02C178.831 20.56 178.831 21.19 178.831 21.91V25.57C179.371 25.57 179.951 25.55 180.571 25.51C181.211 25.45 181.801 25.39 182.341 25.33C182.901 25.25 183.321 25.17 183.601 25.09C183.781 25.07 183.881 25.13 183.901 25.27C183.941 25.53 183.971 25.79 183.991 26.05C184.011 26.31 184.031 26.57 184.051 26.83C184.051 27.05 183.961 27.16 183.781 27.16C183.501 27.12 183.071 27.1 182.491 27.1C181.911 27.08 181.291 27.07 180.631 27.07C179.991 27.07 179.391 27.09 178.831 27.13V31.42C178.831 31.72 178.811 31.9 178.771 31.96C178.751 32.02 178.691 32.06 178.591 32.08L177.061 32.17Z" fill="white"/>
<rect x="210" width="60" height="60" rx="10" fill="#432D2D" fill-opacity="0.76"/>
<path d="M234.555 44.65C234.515 44.65 234.465 44.64 234.405 44.62C234.345 44.6 234.315 44.54 234.315 44.44C234.315 44.38 234.315 44.29 234.315 44.17C234.315 44.01 234.315 43.75 234.315 43.39C234.335 43.03 234.335 42.48 234.315 41.74C234.315 41 234.305 39.98 234.285 38.68C234.285 38.16 234.225 37.62 234.105 37.06C234.005 36.5 233.905 36.15 233.805 36.01C233.725 35.89 233.705 35.79 233.745 35.71C233.805 35.63 233.905 35.59 234.045 35.59L235.965 35.65C236.605 35.67 237.405 35.68 238.365 35.68C239.325 35.68 240.325 35.67 241.365 35.65C242.405 35.61 243.345 35.57 244.185 35.53C245.045 35.49 245.665 35.44 246.045 35.38C246.085 35.38 246.125 35.37 246.165 35.35C246.305 35.33 246.425 35.33 246.525 35.35L248.115 35.56C248.275 35.58 248.335 35.7 248.295 35.92C248.275 36.18 248.245 36.52 248.205 36.94C248.185 37.34 248.165 37.74 248.145 38.14C248.125 38.52 248.115 38.81 248.115 39.01L248.025 44.11C248.025 44.39 247.875 44.53 247.575 44.53C247.015 44.51 246.305 44.5 245.445 44.5C244.585 44.5 243.675 44.5 242.715 44.5C241.755 44.5 240.815 44.5 239.895 44.5C238.975 44.5 238.165 44.5 237.465 44.5C236.765 44.52 236.255 44.54 235.935 44.56L234.555 44.65ZM230.475 32.95C230.035 32.93 229.695 32.71 229.455 32.29C229.215 31.87 229.095 31.34 229.095 30.7V28.03C229.095 27.63 229.085 27.23 229.065 26.83C229.045 26.41 228.965 26 228.825 25.6C228.725 25.36 228.815 25.26 229.095 25.3C229.335 25.32 229.765 25.33 230.385 25.33C231.025 25.33 231.745 25.32 232.545 25.3C233.345 25.28 234.125 25.26 234.885 25.24C235.665 25.2 236.325 25.16 236.865 25.12C237.405 25.06 237.715 25.01 237.795 24.97C237.855 24.39 237.915 23.81 237.975 23.23C238.035 22.65 238.075 22.04 238.095 21.4C238.095 21.28 238.045 21.22 237.945 21.22C237.085 21.22 236.235 21.25 235.395 21.31C234.555 21.35 233.715 21.39 232.875 21.43C232.395 21.47 231.875 21.51 231.315 21.55C230.755 21.59 230.235 21.63 229.755 21.67C229.535 21.69 229.395 21.68 229.335 21.64C229.295 21.58 229.255 21.49 229.215 21.37L228.885 20.2C228.865 20.16 228.875 20.12 228.915 20.08C228.955 20.02 229.005 20 229.065 20.02C229.205 20.04 229.545 20.05 230.085 20.05C230.645 20.05 231.305 20.04 232.065 20.02C232.825 20 233.605 19.97 234.405 19.93C235.225 19.89 235.975 19.85 236.655 19.81C237.335 19.75 237.855 19.68 238.215 19.6C238.335 19.58 238.415 19.57 238.455 19.57C238.515 19.57 238.575 19.58 238.635 19.6C238.655 19.6 238.675 19.6 238.695 19.6L240.075 19.96C240.195 19.98 240.235 20.06 240.195 20.2C240.155 20.44 240.085 20.81 239.985 21.31C239.885 21.79 239.815 22.2 239.775 22.54L239.295 26.26C239.275 26.44 239.175 26.53 238.995 26.53C238.775 26.53 238.395 26.54 237.855 26.56C237.335 26.56 236.735 26.58 236.055 26.62C235.375 26.64 234.695 26.67 234.015 26.71C233.335 26.73 232.715 26.76 232.155 26.8C231.615 26.82 231.225 26.84 230.985 26.86V30.61C230.985 30.81 231.015 30.95 231.075 31.03C231.155 31.09 231.245 31.13 231.345 31.15C231.965 31.19 232.815 31.18 233.895 31.12C234.995 31.06 236.185 30.95 237.465 30.79C238.745 30.61 239.995 30.38 241.215 30.1C242.435 29.82 243.485 29.48 244.365 29.08C244.565 29 244.675 29.02 244.695 29.14L244.845 30.19C244.865 30.39 244.765 30.54 244.545 30.64C243.885 30.92 242.985 31.2 241.845 31.48C240.725 31.74 239.485 31.99 238.125 32.23C236.785 32.45 235.445 32.63 234.105 32.77C232.765 32.89 231.555 32.95 230.475 32.95ZM236.115 42.91C236.395 42.93 236.865 42.95 237.525 42.97C238.205 42.97 238.975 42.97 239.835 42.97C240.695 42.95 241.555 42.93 242.415 42.91C243.275 42.89 244.045 42.87 244.725 42.85C245.405 42.83 245.895 42.8 246.195 42.76L246.255 37.3C246.255 37.16 246.235 37.08 246.195 37.06C246.155 37.02 246.085 37 245.985 37L236.115 37.12V42.91ZM246.255 33.73C246.175 33.73 246.135 33.68 246.135 33.58V21.46C246.135 20.7 246.105 20 246.045 19.36C246.005 18.72 245.935 18.3 245.835 18.1C245.795 18 245.795 17.93 245.835 17.89C245.895 17.83 245.965 17.8 246.045 17.8C246.245 17.8 246.535 17.8 246.915 17.8C247.315 17.8 247.675 17.81 247.995 17.83C248.095 17.83 248.145 17.91 248.145 18.07C248.085 18.81 248.045 19.46 248.025 20.02C248.025 20.56 248.025 21.19 248.025 21.91V32.98C248.025 33.28 248.005 33.46 247.965 33.52C247.945 33.58 247.885 33.62 247.785 33.64L246.255 33.73Z" fill="white"/>
<rect x="176" y="70" width="60" height="60" rx="10" fill="#432D2D" fill-opacity="0.76"/>
<path d="M201.268 104C200.048 104.02 198.928 103.77 197.908 103.25C196.888 102.73 196.068 101.99 195.448 101.03C194.848 100.05 194.548 98.93 194.548 97.67C194.548 96.45 194.848 95.36 195.448 94.4C196.048 93.42 196.858 92.64 197.878 92.06C198.918 91.46 200.058 91.15 201.298 91.13C202.538 91.09 203.658 91.31 204.658 91.79C205.678 92.27 206.488 92.98 207.088 93.92C207.688 94.86 207.988 96.02 207.988 97.4C207.988 98.64 207.688 99.75 207.088 100.73C206.488 101.71 205.678 102.49 204.658 103.07C203.638 103.65 202.508 103.96 201.268 104ZM201.298 102.29C202.178 102.25 202.978 102.03 203.698 101.63C204.418 101.21 204.988 100.64 205.408 99.92C205.848 99.18 206.068 98.35 206.068 97.43C206.068 96.41 205.848 95.54 205.408 94.82C204.988 94.1 204.418 93.56 203.698 93.2C202.978 92.82 202.178 92.65 201.298 92.69C200.418 92.71 199.608 92.94 198.868 93.38C198.128 93.8 197.538 94.38 197.098 95.12C196.658 95.84 196.438 96.68 196.438 97.64C196.438 98.64 196.658 99.49 197.098 100.19C197.558 100.89 198.158 101.42 198.898 101.78C199.638 102.14 200.438 102.31 201.298 102.29ZM213.058 113.3C212.978 113.3 212.938 113.25 212.938 113.15V91.49C212.938 90.73 212.908 90.03 212.848 89.39C212.808 88.73 212.738 88.3 212.638 88.1C212.598 88 212.598 87.93 212.638 87.89C212.698 87.83 212.768 87.8 212.848 87.8C212.968 87.8 213.168 87.81 213.448 87.83C213.748 87.83 214.038 87.84 214.318 87.86C214.598 87.86 214.758 87.86 214.798 87.86C214.898 87.86 214.948 87.94 214.948 88.1C214.888 88.84 214.848 89.49 214.828 90.05C214.828 90.59 214.828 91.22 214.828 91.94V112.55C214.828 112.85 214.808 113.03 214.768 113.09C214.748 113.15 214.688 113.19 214.588 113.21L213.058 113.3Z" fill="white"/>
<rect x="108" y="70" width="60" height="60" rx="10" fill="#432D2D" fill-opacity="0.76"/>
<path d="M125.684 105.74C125.464 105.74 125.324 105.73 125.264 105.71C125.204 105.67 125.144 105.57 125.084 105.41C125.004 105.19 124.934 104.99 124.874 104.81C124.834 104.61 124.774 104.34 124.694 104C124.674 103.96 124.684 103.91 124.724 103.85C124.764 103.79 124.834 103.77 124.934 103.79C125.254 103.83 125.664 103.87 126.164 103.91C126.664 103.95 127.324 103.96 128.144 103.94C128.104 102.76 128.074 101.64 128.054 100.58C128.054 99.52 128.024 98.44 127.964 97.34C127.864 95.84 127.694 94.86 127.454 94.4C127.414 94.3 127.414 94.23 127.454 94.19C127.514 94.13 127.584 94.1 127.664 94.1H129.614C129.734 94.12 129.794 94.22 129.794 94.4C129.774 94.76 129.764 95.12 129.764 95.48C129.764 95.84 129.764 96.24 129.764 96.68C129.764 96.84 129.764 97.01 129.764 97.19C129.764 97.35 129.764 97.53 129.764 97.73L129.734 103.91C130.874 103.87 132.074 103.78 133.334 103.64C133.374 102.62 133.424 101.6 133.484 100.58C133.544 99.54 133.594 98.46 133.634 97.34C133.674 96.62 133.664 95.94 133.604 95.3C133.564 94.66 133.494 94.24 133.394 94.04C133.314 93.86 133.384 93.77 133.604 93.77C133.724 93.77 133.924 93.78 134.204 93.8C134.504 93.8 134.794 93.81 135.074 93.83C135.354 93.83 135.514 93.83 135.554 93.83C135.694 93.85 135.744 93.95 135.704 94.13C135.664 94.67 135.624 95.11 135.584 95.45C135.544 95.79 135.514 96.12 135.494 96.44C135.474 96.76 135.444 97.16 135.404 97.64L135.014 103.4C136.254 103.22 137.474 102.98 138.674 102.68C138.814 102.62 138.904 102.67 138.944 102.83L139.034 103.67C139.034 103.85 139.004 103.97 138.944 104.03C138.904 104.07 138.814 104.12 138.674 104.18C138.134 104.34 137.364 104.5 136.364 104.66C135.384 104.82 134.314 104.97 133.154 105.11C131.994 105.23 130.884 105.33 129.824 105.41C129.104 105.45 128.514 105.49 128.054 105.53C127.614 105.57 127.214 105.61 126.854 105.65C126.514 105.67 126.124 105.7 125.684 105.74ZM141.044 112.52C140.964 112.52 140.924 112.47 140.924 112.37V98.48L139.904 98.51C139.424 98.53 138.954 98.57 138.494 98.63C138.034 98.67 137.564 98.71 137.084 98.75C136.864 98.77 136.724 98.76 136.664 98.72C136.624 98.68 136.594 98.61 136.574 98.51C136.554 98.49 136.544 98.47 136.544 98.45L136.304 97.19C136.264 97.03 136.334 96.96 136.514 96.98C136.994 97.06 137.654 97.09 138.494 97.07C139.354 97.05 140.164 97.02 140.924 96.98V92.24C140.924 91.48 140.904 90.78 140.864 90.14C140.824 89.5 140.754 89.08 140.654 88.88C140.614 88.78 140.614 88.71 140.654 88.67C140.714 88.61 140.784 88.58 140.864 88.58L142.634 88.61C142.734 88.65 142.784 88.73 142.784 88.85C142.744 89.43 142.724 89.95 142.724 90.41C142.724 90.87 142.724 91.35 142.724 91.85C142.724 91.97 142.724 92.1 142.724 92.24C142.724 92.38 142.724 92.53 142.724 92.69V111.77C142.724 112.07 142.704 112.25 142.664 112.31C142.644 112.37 142.584 112.41 142.484 112.43C142.424 112.43 142.284 112.44 142.064 112.46C141.864 112.46 141.664 112.47 141.464 112.49C141.264 112.51 141.124 112.52 141.044 112.52ZM145.424 113.3C145.344 113.3 145.304 113.25 145.304 113.15V91.46C145.304 90.7 145.284 90 145.244 89.36C145.224 88.72 145.164 88.3 145.064 88.1C145.024 88 145.024 87.93 145.064 87.89C145.124 87.83 145.194 87.8 145.274 87.8L147.044 87.83C147.144 87.87 147.194 87.95 147.194 88.07C147.154 88.67 147.124 89.21 147.104 89.69C147.104 90.17 147.104 90.67 147.104 91.19C147.104 91.31 147.104 91.43 147.104 91.55C147.104 91.67 147.104 91.79 147.104 91.91V112.55C147.104 112.85 147.084 113.03 147.044 113.09C147.024 113.15 146.964 113.19 146.864 113.21C146.804 113.21 146.664 113.21 146.444 113.21C146.244 113.23 146.044 113.25 145.844 113.27C145.644 113.29 145.504 113.3 145.424 113.3ZM126.104 93.17C125.904 93.19 125.774 93.17 125.714 93.11C125.654 93.03 125.604 92.94 125.564 92.84C125.544 92.82 125.534 92.8 125.534 92.78C125.454 92.56 125.394 92.39 125.354 92.27C125.314 92.13 125.254 91.89 125.174 91.55C125.154 91.51 125.164 91.46 125.204 91.4C125.244 91.34 125.314 91.31 125.414 91.31C125.814 91.31 126.234 91.33 126.674 91.37C127.134 91.39 127.824 91.4 128.744 91.4C129.864 91.36 130.974 91.31 132.074 91.25C133.194 91.19 134.214 91.12 135.134 91.04C136.074 90.94 136.834 90.85 137.414 90.77C137.474 90.75 137.544 90.76 137.624 90.8C137.704 90.82 137.754 90.88 137.774 90.98C137.814 91.12 137.854 91.33 137.894 91.61C137.934 91.87 137.964 92.11 137.984 92.33C138.024 92.55 137.904 92.66 137.624 92.66C137.244 92.64 136.884 92.63 136.544 92.63C136.224 92.63 135.864 92.63 135.464 92.63C135.024 92.63 134.464 92.64 133.784 92.66C133.104 92.68 132.404 92.71 131.684 92.75C130.984 92.79 130.354 92.83 129.794 92.87C129.254 92.89 128.884 92.91 128.684 92.93L126.104 93.17Z" fill="white"/>
<rect x="244" y="70" width="60" height="60" rx="10" fill="#432D2D" fill-opacity="0.76"/>
<path d="M261.895 106.37C261.795 106.29 261.655 106.19 261.475 106.07C261.315 105.93 261.185 105.81 261.085 105.71C260.965 105.57 260.975 105.46 261.115 105.38C263.115 103.96 264.685 102.48 265.825 100.94C266.985 99.4 267.815 97.9 268.315 96.44C268.835 94.96 269.135 93.64 269.215 92.48C268.695 92.52 268.245 92.55 267.865 92.57C267.485 92.59 267.225 92.6 267.085 92.6L263.785 92.9C263.585 92.92 263.455 92.9 263.395 92.84C263.335 92.76 263.285 92.67 263.245 92.57C263.225 92.55 263.215 92.53 263.215 92.51C263.135 92.29 263.075 92.1 263.035 91.94C263.015 91.76 262.965 91.5 262.885 91.16C262.865 91.02 262.945 90.95 263.125 90.95C263.685 90.99 264.205 91.02 264.685 91.04C265.185 91.04 265.915 91.04 266.875 91.04C267.955 91.04 268.925 91.02 269.785 90.98C270.665 90.94 271.475 90.89 272.215 90.83C272.995 90.77 273.625 90.72 274.105 90.68C274.605 90.64 275.035 90.6 275.395 90.56C275.775 90.5 276.175 90.45 276.595 90.41C276.655 90.41 276.725 90.42 276.805 90.44C276.885 90.46 276.935 90.52 276.955 90.62C276.975 90.74 276.995 90.88 277.015 91.04C277.055 91.2 277.085 91.36 277.105 91.52L277.165 92.06C277.205 92.28 277.085 92.39 276.805 92.39C276.425 92.37 275.995 92.36 275.515 92.36C275.055 92.36 274.625 92.36 274.225 92.36C273.885 92.36 273.475 92.37 272.995 92.39C272.535 92.39 272.035 92.4 271.495 92.42C271.375 94.02 270.895 95.74 270.055 97.58C271.015 98.26 271.975 98.98 272.935 99.74C273.895 100.48 274.765 101.19 275.545 101.87C276.325 102.53 276.925 103.1 277.345 103.58C277.425 103.68 277.485 103.8 277.525 103.94C277.585 104.06 277.565 104.19 277.465 104.33C277.285 104.55 277.075 104.75 276.835 104.93C276.615 105.09 276.395 105.26 276.175 105.44C276.055 105.54 275.955 105.52 275.875 105.38C275.595 104.94 275.205 104.43 274.705 103.85C274.225 103.27 273.675 102.68 273.055 102.08C272.455 101.46 271.835 100.87 271.195 100.31C270.575 99.75 269.985 99.26 269.425 98.84C268.725 100.1 267.835 101.36 266.755 102.62C265.675 103.88 264.375 105.09 262.855 106.25C262.835 106.27 262.805 106.29 262.765 106.31C262.625 106.41 262.495 106.48 262.375 106.52C262.255 106.54 262.095 106.49 261.895 106.37ZM280.405 113.3C280.325 113.3 280.285 113.25 280.285 113.15V91.49C280.285 90.73 280.255 90.03 280.195 89.39C280.155 88.73 280.085 88.3 279.985 88.1C279.945 88 279.945 87.93 279.985 87.89C280.045 87.83 280.115 87.8 280.195 87.8C280.315 87.8 280.515 87.81 280.795 87.83C281.095 87.83 281.385 87.84 281.665 87.86C281.945 87.86 282.105 87.86 282.145 87.86C282.245 87.86 282.295 87.94 282.295 88.1C282.235 88.84 282.195 89.49 282.175 90.05C282.175 90.59 282.175 91.22 282.175 91.94V112.55C282.175 112.85 282.155 113.03 282.115 113.09C282.095 113.15 282.035 113.19 281.935 113.21L280.405 113.3Z" fill="white"/>
<rect x="278" width="60" height="60" rx="10" fill="#E8E4DE"/>
<rect x="312" y="70" width="60" height="60" rx="10" fill="#E8E4DE"/>
<rect x="346" width="60" height="60" rx="10" fill="#E8E4DE"/>
<rect x="74" width="60" height="60" rx="10" fill="#E8E4DE"/>
<rect x="40" y="70" width="60" height="60" rx="10" fill="#E8E4DE"/>
<rect x="6" width="60" height="60" rx="10" fill="#E8E4DE"/>
<path d="M0 70H22C27.5228 70 32 74.4772 32 80V120C32 125.523 27.5228 130 22 130H0V70Z" fill="#E8E4DE"/>
<path d="M380 80C380 74.4772 384.477 70 390 70H412V130H390C384.477 130 380 125.523 380 120V80Z" fill="#E8E4DE"/>
</svg>
