<svg width="412" height="130" viewBox="0 0 412 130" fill="none" xmlns="http://www.w3.org/2000/svg">
<rect x="142" width="60" height="60" rx="10" fill="#432D2D" fill-opacity="0.76"/>
<path d="M164.844 30.97C164.144 30.99 163.654 30.8 163.374 30.4C163.094 30 162.954 29.32 162.954 28.36V23.53C162.954 22.83 162.904 22.23 162.804 21.73C162.704 21.21 162.604 20.85 162.504 20.65C162.444 20.53 162.444 20.43 162.504 20.35C162.564 20.25 162.644 20.2 162.744 20.2C162.884 20.2 163.134 20.21 163.494 20.23C163.854 20.25 164.234 20.27 164.634 20.29C165.314 20.31 166.134 20.32 167.094 20.32C168.054 20.3 169.074 20.27 170.154 20.23C171.254 20.19 172.324 20.15 173.364 20.11C174.544 20.07 175.564 20.01 176.424 19.93C177.284 19.85 177.974 19.78 178.494 19.72C178.554 19.72 178.624 19.73 178.704 19.75C178.784 19.77 178.834 19.83 178.854 19.93L178.944 20.74C178.964 20.82 178.974 20.9 178.974 20.98C178.974 21.04 178.974 21.11 178.974 21.19C179.014 21.41 178.894 21.52 178.614 21.52C178.054 21.52 177.514 21.53 176.994 21.55C176.474 21.55 175.924 21.56 175.344 21.58L164.844 21.85V28C164.844 28.6 164.894 28.99 164.994 29.17C165.094 29.35 165.304 29.45 165.624 29.47C166.124 29.49 166.754 29.5 167.514 29.5C168.274 29.5 169.064 29.49 169.884 29.47C170.704 29.45 171.464 29.43 172.164 29.41C172.884 29.37 173.434 29.34 173.814 29.32C174.894 29.28 175.834 29.22 176.634 29.14C177.454 29.06 178.114 28.97 178.614 28.87C178.814 28.83 178.944 28.84 179.004 28.9C179.064 28.94 179.104 29.01 179.124 29.11C179.164 29.33 179.184 29.55 179.184 29.77C179.204 29.97 179.224 30.2 179.244 30.46C179.244 30.58 179.204 30.66 179.124 30.7C179.064 30.74 178.894 30.76 178.614 30.76C176.474 30.76 174.214 30.79 171.834 30.85C169.474 30.89 167.144 30.93 164.844 30.97ZM159.594 40.27C159.374 40.29 159.224 40.27 159.144 40.21C159.064 40.15 159.004 40.06 158.964 39.94C158.884 39.72 158.814 39.5 158.754 39.28C158.694 39.04 158.624 38.75 158.544 38.41C158.524 38.37 158.534 38.32 158.574 38.26C158.614 38.18 158.684 38.15 158.784 38.17C159.544 38.27 160.584 38.34 161.904 38.38C163.224 38.4 164.674 38.41 166.254 38.41C166.894 38.41 167.544 38.41 168.204 38.41C168.884 38.41 169.574 38.4 170.274 38.38V35.89C170.274 35.11 170.244 34.43 170.184 33.85C170.124 33.27 170.054 32.88 169.974 32.68C169.894 32.48 169.964 32.38 170.184 32.38H171.984C172.104 32.38 172.164 32.46 172.164 32.62C172.164 32.64 172.164 32.66 172.164 32.68C172.124 33.2 172.094 33.7 172.074 34.18C172.054 34.66 172.044 35.16 172.044 35.68L172.014 38.35C173.534 38.31 174.994 38.26 176.394 38.2C177.794 38.12 179.054 38.03 180.174 37.93C181.294 37.83 182.154 37.73 182.754 37.63C182.954 37.59 183.084 37.6 183.144 37.66C183.204 37.72 183.244 37.8 183.264 37.9L183.444 39.34C183.444 39.44 183.414 39.53 183.354 39.61C183.294 39.69 183.134 39.73 182.874 39.73C182.194 39.71 181.404 39.7 180.504 39.7C179.604 39.7 178.644 39.7 177.624 39.7C175.124 39.7 172.704 39.73 170.364 39.79C168.024 39.83 165.924 39.89 164.064 39.97C162.204 40.05 160.714 40.15 159.594 40.27Z" fill="white"/>
<rect x="210" width="60" height="60" rx="10" fill="#432D2D" fill-opacity="0.76"/>
<path d="M227.568 34.57L226.908 33.88C226.828 33.8 226.858 33.7 226.998 33.58C228.218 33 229.428 32.27 230.628 31.39C231.828 30.49 232.938 29.51 233.958 28.45C234.978 27.37 235.828 26.26 236.508 25.12C237.188 23.98 237.608 22.88 237.768 21.82C237.788 21.6 237.708 21.49 237.528 21.49C236.668 21.51 235.818 21.55 234.978 21.61C234.158 21.67 233.318 21.73 232.458 21.79C231.858 21.83 231.248 21.88 230.628 21.94C230.028 22 229.408 22.06 228.768 22.12C228.568 22.14 228.438 22.12 228.378 22.06C228.318 21.98 228.268 21.89 228.228 21.79C228.208 21.77 228.198 21.75 228.198 21.73C228.118 21.51 228.058 21.33 228.018 21.19C227.978 21.03 227.918 20.78 227.838 20.44C227.818 20.4 227.828 20.35 227.868 20.29C227.908 20.23 227.978 20.21 228.078 20.23C228.958 20.31 229.908 20.35 230.928 20.35C231.948 20.33 232.968 20.29 233.988 20.23C235.008 20.15 235.958 20.06 236.838 19.96C237.058 19.92 237.308 19.88 237.588 19.84C237.868 19.78 238.018 19.75 238.038 19.75C238.138 19.71 238.248 19.71 238.368 19.75C238.528 19.79 238.738 19.87 238.998 19.99C239.258 20.09 239.498 20.19 239.718 20.29C239.938 20.39 240.068 20.45 240.108 20.47C240.308 20.55 240.378 20.68 240.318 20.86C240.178 21.28 240.048 21.66 239.928 22C239.808 22.32 239.648 22.71 239.448 23.17C239.028 24.21 238.368 25.39 237.468 26.71C236.568 28.01 235.388 29.35 233.928 30.73C232.468 32.09 230.668 33.37 228.528 34.57C228.368 34.67 228.208 34.73 228.048 34.75C227.888 34.77 227.728 34.71 227.568 34.57ZM244.788 45.25C244.708 45.25 244.668 45.2 244.668 45.1V37.21C244.668 37.07 244.648 36.98 244.608 36.94C244.588 36.9 244.488 36.88 244.308 36.88C243.848 36.88 243.208 36.89 242.388 36.91C241.568 36.93 240.698 36.96 239.778 37C238.858 37.02 237.988 37.05 237.168 37.09C236.368 37.11 235.758 37.13 235.338 37.15C234.838 37.19 234.288 37.23 233.688 37.27C233.108 37.31 232.568 37.35 232.068 37.39C231.868 37.41 231.738 37.39 231.678 37.33C231.618 37.25 231.568 37.16 231.528 37.06C231.508 37.04 231.498 37.02 231.498 37L231.198 35.71C231.178 35.67 231.188 35.62 231.228 35.56C231.268 35.5 231.338 35.48 231.438 35.5C231.758 35.54 232.338 35.57 233.178 35.59C234.038 35.61 235.018 35.62 236.118 35.62C237.218 35.6 238.328 35.57 239.448 35.53C240.568 35.49 241.578 35.44 242.478 35.38C243.378 35.3 244.028 35.21 244.428 35.11C244.448 35.11 244.478 35.1 244.518 35.08C244.558 35.08 244.598 35.08 244.638 35.08C244.678 35.06 244.748 35.06 244.848 35.08L246.618 35.35C246.718 35.37 246.768 35.41 246.768 35.47C246.788 35.51 246.798 35.55 246.798 35.59C246.798 35.61 246.798 35.62 246.798 35.62C246.738 36.18 246.688 36.75 246.648 37.33C246.628 37.91 246.618 38.44 246.618 38.92L246.588 44.68C246.588 44.92 246.538 45.06 246.438 45.1C246.358 45.14 246.268 45.17 246.168 45.19L244.788 45.25ZM244.908 33.37C244.828 33.37 244.788 33.32 244.788 33.22V21.46C244.788 20.7 244.758 20 244.698 19.36C244.658 18.72 244.588 18.3 244.488 18.1C244.448 18 244.448 17.93 244.488 17.89C244.548 17.83 244.618 17.8 244.698 17.8C244.898 17.8 245.188 17.8 245.568 17.8C245.968 17.8 246.328 17.81 246.648 17.83C246.748 17.83 246.798 17.91 246.798 18.07C246.738 18.81 246.698 19.46 246.678 20.02C246.678 20.56 246.678 21.19 246.678 21.91V25.57C247.218 25.57 247.798 25.55 248.418 25.51C249.058 25.45 249.648 25.39 250.188 25.33C250.748 25.25 251.168 25.17 251.448 25.09C251.628 25.07 251.728 25.13 251.748 25.27C251.788 25.53 251.818 25.79 251.838 26.05C251.858 26.31 251.878 26.57 251.898 26.83C251.898 27.05 251.808 27.16 251.628 27.16C251.348 27.12 250.918 27.1 250.338 27.1C249.758 27.08 249.138 27.07 248.478 27.07C247.838 27.07 247.238 27.09 246.678 27.13V32.62C246.678 32.92 246.658 33.1 246.618 33.16C246.598 33.22 246.538 33.26 246.438 33.28L244.908 33.37Z" fill="white"/>
<rect x="176" y="70" width="60" height="60" rx="10" fill="#432D2D" fill-opacity="0.76"/>
<path d="M194.386 108.44L193.666 107.78C193.586 107.7 193.616 107.6 193.756 107.48C194.756 106.96 195.766 106.29 196.786 105.47C197.826 104.63 198.816 103.7 199.756 102.68C200.716 101.64 201.586 100.56 202.366 99.44C203.146 98.32 203.786 97.2 204.286 96.08C204.786 94.94 205.096 93.86 205.216 92.84C205.256 92.62 205.166 92.51 204.946 92.51L198.766 92.87L195.646 93.14C195.446 93.16 195.316 93.14 195.256 93.08C195.196 93 195.146 92.91 195.106 92.81C195.086 92.79 195.076 92.77 195.076 92.75C194.996 92.53 194.936 92.35 194.896 92.21C194.856 92.05 194.796 91.8 194.716 91.46C194.696 91.42 194.706 91.37 194.746 91.31C194.786 91.25 194.856 91.23 194.956 91.25C195.836 91.33 196.846 91.37 197.986 91.37C199.126 91.35 200.266 91.31 201.406 91.25C202.566 91.17 203.586 91.08 204.466 90.98C204.706 90.96 204.966 90.92 205.246 90.86C205.526 90.8 205.666 90.77 205.666 90.77C205.766 90.73 205.876 90.73 205.996 90.77L207.646 91.31C207.806 91.39 207.876 91.52 207.856 91.7L207.166 93.92C206.886 94.8 206.426 95.85 205.786 97.07C205.166 98.29 204.366 99.58 203.386 100.94C202.406 102.28 201.246 103.6 199.906 104.9C198.566 106.2 197.046 107.38 195.346 108.44C195.186 108.54 195.026 108.6 194.866 108.62C194.706 108.64 194.546 108.58 194.386 108.44ZM212.266 113.3C212.186 113.3 212.146 113.25 212.146 113.15V91.49C212.146 90.73 212.116 90.03 212.056 89.39C212.016 88.73 211.946 88.3 211.846 88.1C211.806 88 211.806 87.93 211.846 87.89C211.906 87.83 211.976 87.8 212.056 87.8C212.176 87.8 212.376 87.81 212.656 87.83C212.956 87.83 213.246 87.84 213.526 87.86C213.806 87.86 213.966 87.86 214.006 87.86C214.106 87.86 214.156 87.94 214.156 88.1C214.096 88.84 214.056 89.49 214.036 90.05C214.036 90.59 214.036 91.22 214.036 91.94V112.55C214.036 112.85 214.016 113.03 213.976 113.09C213.956 113.15 213.896 113.19 213.796 113.21L212.266 113.3Z" fill="white"/>
<rect x="108" y="70" width="60" height="60" rx="10" fill="#432D2D" fill-opacity="0.76"/>
<path d="M145.124 113.3C145.044 113.3 145.004 113.25 145.004 113.15V99.98C144.384 99.98 143.744 99.99 143.084 100.01C142.424 100.01 141.854 100.03 141.374 100.07V111.77C141.374 112.05 141.354 112.23 141.314 112.31C141.294 112.37 141.234 112.41 141.134 112.43C141.014 112.45 140.764 112.47 140.384 112.49C140.024 112.51 139.794 112.52 139.694 112.52C139.614 112.52 139.574 112.47 139.574 112.37V92.24C139.574 91.48 139.554 90.78 139.514 90.14C139.474 89.5 139.404 89.08 139.304 88.88C139.264 88.78 139.264 88.71 139.304 88.67C139.364 88.61 139.434 88.58 139.514 88.58L141.284 88.61C141.384 88.65 141.434 88.73 141.434 88.85C141.394 89.43 141.374 89.95 141.374 90.41C141.374 90.87 141.374 91.35 141.374 91.85C141.374 91.97 141.374 92.1 141.374 92.24C141.374 92.38 141.374 92.53 141.374 92.69V98.36C141.474 98.36 141.574 98.36 141.674 98.36C141.774 98.36 141.874 98.36 141.974 98.36C142.434 98.36 142.924 98.36 143.444 98.36C143.984 98.36 144.504 98.34 145.004 98.3V91.46C145.004 90.7 144.984 90 144.944 89.36C144.924 88.72 144.864 88.3 144.764 88.1C144.724 88 144.724 87.93 144.764 87.89C144.824 87.83 144.894 87.8 144.974 87.8L146.744 87.83C146.844 87.87 146.894 87.95 146.894 88.07C146.854 88.67 146.824 89.21 146.804 89.69C146.804 90.17 146.804 90.67 146.804 91.19C146.804 91.31 146.804 91.43 146.804 91.55C146.804 91.67 146.804 91.79 146.804 91.91V112.55C146.804 112.85 146.784 113.03 146.744 113.09C146.724 113.15 146.664 113.19 146.564 113.21C146.504 113.21 146.364 113.21 146.144 113.21C145.944 113.23 145.744 113.25 145.544 113.27C145.344 113.29 145.204 113.3 145.124 113.3ZM124.694 105.62L124.004 104.99C123.924 104.91 123.954 104.82 124.094 104.72C124.114 104.7 124.124 104.69 124.124 104.69C124.924 104.11 125.704 103.4 126.464 102.56C127.244 101.7 127.964 100.78 128.624 99.8C129.284 98.82 129.854 97.83 130.334 96.83C130.814 95.83 131.164 94.89 131.384 94.01C131.544 93.41 131.674 92.79 131.774 92.15C131.874 91.49 131.924 90.96 131.924 90.56C131.924 90.44 131.954 90.36 132.014 90.32C132.074 90.26 132.134 90.25 132.194 90.29L134.144 90.77C134.264 90.79 134.314 90.9 134.294 91.1L133.334 94.31C133.214 94.69 133.054 95.15 132.854 95.69C132.654 96.23 132.384 96.82 132.044 97.46C132.604 97.96 133.194 98.5 133.814 99.08C134.434 99.64 135.034 100.19 135.614 100.73C136.214 101.27 136.734 101.76 137.174 102.2C137.614 102.64 137.934 102.98 138.134 103.22C138.194 103.28 138.244 103.38 138.284 103.52C138.344 103.66 138.304 103.79 138.164 103.91C137.984 104.11 137.794 104.3 137.594 104.48C137.394 104.66 137.184 104.82 136.964 104.96C136.864 105.06 136.764 105.04 136.664 104.9C136.344 104.36 135.884 103.72 135.284 102.98C134.684 102.22 134.034 101.45 133.334 100.67C132.654 99.89 132.014 99.22 131.414 98.66C130.794 99.74 130.014 100.88 129.074 102.08C128.154 103.26 127.004 104.43 125.624 105.59C125.524 105.69 125.394 105.76 125.234 105.8C125.074 105.84 124.894 105.78 124.694 105.62Z" fill="white"/>
<rect x="244" y="70" width="60" height="60" rx="10" fill="#432D2D" fill-opacity="0.76"/>
<path d="M262.386 108.44L261.666 107.78C261.586 107.7 261.616 107.6 261.756 107.48C262.756 106.96 263.766 106.29 264.786 105.47C265.826 104.63 266.816 103.7 267.756 102.68C268.716 101.64 269.586 100.56 270.366 99.44C271.146 98.32 271.786 97.2 272.286 96.08C272.786 94.94 273.096 93.86 273.216 92.84C273.256 92.62 273.166 92.51 272.946 92.51L266.766 92.87L263.646 93.14C263.446 93.16 263.316 93.14 263.256 93.08C263.196 93 263.146 92.91 263.106 92.81C263.086 92.79 263.076 92.77 263.076 92.75C262.996 92.53 262.936 92.35 262.896 92.21C262.856 92.05 262.796 91.8 262.716 91.46C262.696 91.42 262.706 91.37 262.746 91.31C262.786 91.25 262.856 91.23 262.956 91.25C263.836 91.33 264.846 91.37 265.986 91.37C267.126 91.35 268.266 91.31 269.406 91.25C270.566 91.17 271.586 91.08 272.466 90.98C272.706 90.96 272.966 90.92 273.246 90.86C273.526 90.8 273.666 90.77 273.666 90.77C273.766 90.73 273.876 90.73 273.996 90.77L275.646 91.31C275.806 91.39 275.876 91.52 275.856 91.7L275.166 93.92C274.886 94.8 274.426 95.85 273.786 97.07C273.166 98.29 272.366 99.58 271.386 100.94C270.406 102.28 269.246 103.6 267.906 104.9C266.566 106.2 265.046 107.38 263.346 108.44C263.186 108.54 263.026 108.6 262.866 108.62C262.706 108.64 262.546 108.58 262.386 108.44ZM280.266 113.3C280.186 113.3 280.146 113.25 280.146 113.15V91.49C280.146 90.73 280.116 90.03 280.056 89.39C280.016 88.73 279.946 88.3 279.846 88.1C279.806 88 279.806 87.93 279.846 87.89C279.906 87.83 279.976 87.8 280.056 87.8C280.176 87.8 280.376 87.81 280.656 87.83C280.956 87.83 281.246 87.84 281.526 87.86C281.806 87.86 281.966 87.86 282.006 87.86C282.106 87.86 282.156 87.94 282.156 88.1C282.096 88.84 282.056 89.49 282.036 90.05C282.036 90.59 282.036 91.22 282.036 91.94V112.55C282.036 112.85 282.016 113.03 281.976 113.09C281.956 113.15 281.896 113.19 281.796 113.21L280.266 113.3Z" fill="white"/>
<rect x="278" width="60" height="60" rx="10" fill="#E8E4DE"/>
<rect x="312" y="70" width="60" height="60" rx="10" fill="#E8E4DE"/>
<rect x="346" width="60" height="60" rx="10" fill="#E8E4DE"/>
<rect x="74" width="60" height="60" rx="10" fill="#E8E4DE"/>
<rect x="40" y="70" width="60" height="60" rx="10" fill="#E8E4DE"/>
<path d="M0 70H22C27.5228 70 32 74.4772 32 80V120C32 125.523 27.5228 130 22 130H0V70Z" fill="#E8E4DE"/>
<path d="M380 80C380 74.4772 384.477 70 390 70H412V130H390C384.477 130 380 125.523 380 120V80Z" fill="#E8E4DE"/>
<rect x="6" width="60" height="60" rx="10" fill="#E8E4DE"/>
</svg>
