<svg width="400" height="130" viewBox="0 0 400 130" fill="none" xmlns="http://www.w3.org/2000/svg">
<rect x="136" width="60" height="60" rx="10" fill="#432D2D" fill-opacity="0.76"/>
<path d="M154.386 38.44L153.666 37.78C153.586 37.7 153.616 37.6 153.756 37.48C154.756 36.96 155.766 36.29 156.786 35.47C157.826 34.63 158.816 33.7 159.756 32.68C160.716 31.64 161.586 30.56 162.366 29.44C163.146 28.32 163.786 27.2 164.286 26.08C164.786 24.94 165.096 23.86 165.216 22.84C165.256 22.62 165.166 22.51 164.946 22.51L158.766 22.87L155.646 23.14C155.446 23.16 155.316 23.14 155.256 23.08C155.196 23 155.146 22.91 155.106 22.81C155.086 22.79 155.076 22.77 155.076 22.75C154.996 22.53 154.936 22.35 154.896 22.21C154.856 22.05 154.796 21.8 154.716 21.46C154.696 21.42 154.706 21.37 154.746 21.31C154.786 21.25 154.856 21.23 154.956 21.25C155.836 21.33 156.846 21.37 157.986 21.37C159.126 21.35 160.266 21.31 161.406 21.25C162.566 21.17 163.586 21.08 164.466 20.98C164.706 20.96 164.966 20.92 165.246 20.86C165.526 20.8 165.666 20.77 165.666 20.77C165.766 20.73 165.876 20.73 165.996 20.77L167.646 21.31C167.806 21.39 167.876 21.52 167.856 21.7L167.166 23.92C166.886 24.8 166.426 25.85 165.786 27.07C165.166 28.29 164.366 29.58 163.386 30.94C162.406 32.28 161.246 33.6 159.906 34.9C158.566 36.2 157.046 37.38 155.346 38.44C155.186 38.54 155.026 38.6 154.866 38.62C154.706 38.64 154.546 38.58 154.386 38.44ZM172.266 43.3C172.186 43.3 172.146 43.25 172.146 43.15V21.49C172.146 20.73 172.116 20.03 172.056 19.39C172.016 18.73 171.946 18.3 171.846 18.1C171.806 18 171.806 17.93 171.846 17.89C171.906 17.83 171.976 17.8 172.056 17.8C172.176 17.8 172.376 17.81 172.656 17.83C172.956 17.83 173.246 17.84 173.526 17.86C173.806 17.86 173.966 17.86 174.006 17.86C174.106 17.86 174.156 17.94 174.156 18.1C174.096 18.84 174.056 19.49 174.036 20.05C174.036 20.59 174.036 21.22 174.036 21.94V42.55C174.036 42.85 174.016 43.03 173.976 43.09C173.956 43.15 173.896 43.19 173.796 43.21L172.266 43.3Z" fill="white"/>
<rect x="204" width="60" height="60" rx="10" fill="#432D2D" fill-opacity="0.76"/>
<path d="M221.651 34.27C221.431 34.29 221.281 34.27 221.201 34.21C221.121 34.15 221.061 34.06 221.021 33.94C220.941 33.72 220.871 33.5 220.811 33.28C220.751 33.06 220.681 32.78 220.601 32.44C220.581 32.4 220.591 32.35 220.631 32.29C220.671 32.21 220.741 32.18 220.841 32.2C221.601 32.3 222.641 32.38 223.961 32.44C225.281 32.48 226.731 32.49 228.311 32.47C229.011 32.47 229.741 32.47 230.501 32.47C231.261 32.45 232.031 32.43 232.811 32.41L232.721 28.78C231.801 28.8 230.901 28.82 230.021 28.84C229.161 28.86 228.331 28.88 227.531 28.9C226.951 28.88 226.581 28.67 226.421 28.27C226.281 27.87 226.211 27.38 226.211 26.8V25.3C226.211 24.98 226.181 24.62 226.121 24.22C226.081 23.8 226.001 23.43 225.881 23.11C225.841 23.05 225.851 22.97 225.911 22.87C225.971 22.75 226.071 22.71 226.211 22.75C226.431 22.79 226.911 22.83 227.651 22.87C228.391 22.89 229.271 22.9 230.291 22.9C231.311 22.88 232.351 22.86 233.411 22.84C234.491 22.82 235.481 22.79 236.381 22.75C237.281 22.69 237.971 22.62 238.451 22.54L238.571 19.93C238.571 19.71 238.471 19.6 238.271 19.6C237.811 19.6 237.221 19.61 236.501 19.63C235.801 19.63 235.051 19.64 234.251 19.66C233.451 19.68 232.681 19.7 231.941 19.72C231.221 19.74 230.601 19.76 230.081 19.78C229.621 19.8 229.071 19.83 228.431 19.87C227.791 19.89 227.251 19.92 226.811 19.96C226.511 19.98 226.331 19.87 226.271 19.63L225.941 18.49C225.921 18.45 225.931 18.4 225.971 18.34C226.011 18.28 226.081 18.26 226.181 18.28C226.521 18.3 227.041 18.32 227.741 18.34C228.461 18.36 229.281 18.37 230.201 18.37C231.141 18.37 232.111 18.36 233.111 18.34C234.131 18.32 235.101 18.28 236.021 18.22C236.961 18.16 237.771 18.08 238.451 17.98C238.491 17.98 238.531 17.97 238.571 17.95C238.711 17.93 238.821 17.93 238.901 17.95L240.581 18.28C240.741 18.3 240.801 18.39 240.761 18.55L240.521 20.11C240.441 20.83 240.371 21.42 240.311 21.88C240.271 22.32 240.231 22.85 240.191 23.47C240.171 23.69 240.111 23.84 240.011 23.92C239.911 23.98 239.811 24.01 239.711 24.01C239.031 24.01 238.201 24.02 237.221 24.04C236.241 24.06 235.201 24.08 234.101 24.1C233.001 24.12 231.921 24.15 230.861 24.19C229.821 24.21 228.901 24.23 228.101 24.25V26.59C228.101 26.93 228.131 27.15 228.191 27.25C228.271 27.35 228.411 27.4 228.611 27.4C231.191 27.5 233.771 27.47 236.351 27.31C237.191 27.27 237.981 27.22 238.721 27.16C239.461 27.1 240.161 27.01 240.821 26.89C241.021 26.85 241.151 26.86 241.211 26.92C241.271 26.98 241.311 27.06 241.331 27.16C241.371 27.32 241.391 27.5 241.391 27.7C241.411 27.88 241.431 28.08 241.451 28.3C241.451 28.46 241.411 28.57 241.331 28.63C241.271 28.67 241.131 28.69 240.911 28.69C239.931 28.69 238.911 28.7 237.851 28.72C236.811 28.72 235.761 28.73 234.701 28.75L234.611 32.35C236.171 32.31 237.681 32.26 239.141 32.2C240.621 32.12 241.931 32.04 243.071 31.96C244.231 31.86 245.111 31.76 245.711 31.66C245.911 31.62 246.041 31.63 246.101 31.69C246.161 31.75 246.201 31.83 246.221 31.93L246.401 33.25C246.421 33.53 246.231 33.66 245.831 33.64C245.211 33.6 244.371 33.58 243.311 33.58C242.271 33.58 241.141 33.59 239.921 33.61C238.841 33.61 237.731 33.63 236.591 33.67C235.471 33.69 234.411 33.71 233.411 33.73C232.431 33.75 231.581 33.77 230.861 33.79C228.841 33.85 227.021 33.92 225.401 34C223.781 34.08 222.531 34.17 221.651 34.27ZM239.351 45.4C239.271 45.4 239.231 45.35 239.231 45.25V38.47C239.231 38.25 239.111 38.14 238.871 38.14C238.431 38.14 237.781 38.15 236.921 38.17C236.081 38.19 235.181 38.22 234.221 38.26C233.281 38.3 232.391 38.34 231.551 38.38C230.731 38.4 230.111 38.42 229.691 38.44C229.191 38.48 228.641 38.52 228.041 38.56C227.461 38.58 226.921 38.61 226.421 38.65C226.201 38.67 226.061 38.64 226.001 38.56C225.941 38.48 225.891 38.38 225.851 38.26L225.551 37C225.531 36.96 225.541 36.91 225.581 36.85C225.621 36.79 225.691 36.77 225.791 36.79C226.071 36.83 226.541 36.86 227.201 36.88C227.861 36.9 228.631 36.91 229.511 36.91C230.391 36.91 231.311 36.9 232.271 36.88C233.231 36.86 234.161 36.83 235.061 36.79C235.981 36.75 236.791 36.7 237.491 36.64C238.191 36.58 238.711 36.51 239.051 36.43C239.071 36.43 239.101 36.42 239.141 36.4C239.181 36.4 239.221 36.4 239.261 36.4C239.301 36.38 239.371 36.38 239.471 36.4C239.731 36.44 240.001 36.48 240.281 36.52C240.561 36.56 240.841 36.61 241.121 36.67C241.241 36.69 241.301 36.78 241.301 36.94C241.261 37.52 241.221 38.11 241.181 38.71C241.161 39.29 241.151 39.82 241.151 40.3L241.121 44.8C241.121 44.98 241.091 45.1 241.031 45.16C240.971 45.22 240.861 45.27 240.701 45.31C240.601 45.31 240.371 45.32 240.011 45.34C239.671 45.38 239.451 45.4 239.351 45.4Z" fill="white"/>
<rect x="170" y="70" width="60" height="60" rx="10" fill="#432D2D" fill-opacity="0.76"/>
<path d="M195.268 104C194.048 104.02 192.928 103.77 191.908 103.25C190.888 102.73 190.068 101.99 189.448 101.03C188.848 100.05 188.548 98.93 188.548 97.67C188.548 96.45 188.848 95.36 189.448 94.4C190.048 93.42 190.858 92.64 191.878 92.06C192.918 91.46 194.058 91.15 195.298 91.13C196.538 91.09 197.658 91.31 198.658 91.79C199.678 92.27 200.488 92.98 201.088 93.92C201.688 94.86 201.988 96.02 201.988 97.4C201.988 98.64 201.688 99.75 201.088 100.73C200.488 101.71 199.678 102.49 198.658 103.07C197.638 103.65 196.508 103.96 195.268 104ZM195.298 102.29C196.178 102.25 196.978 102.03 197.698 101.63C198.418 101.21 198.988 100.64 199.408 99.92C199.848 99.18 200.068 98.35 200.068 97.43C200.068 96.41 199.848 95.54 199.408 94.82C198.988 94.1 198.418 93.56 197.698 93.2C196.978 92.82 196.178 92.65 195.298 92.69C194.418 92.71 193.608 92.94 192.868 93.38C192.128 93.8 191.538 94.38 191.098 95.12C190.658 95.84 190.438 96.68 190.438 97.64C190.438 98.64 190.658 99.49 191.098 100.19C191.558 100.89 192.158 101.42 192.898 101.78C193.638 102.14 194.438 102.31 195.298 102.29ZM207.058 113.3C206.978 113.3 206.938 113.25 206.938 113.15V91.49C206.938 90.73 206.908 90.03 206.848 89.39C206.808 88.73 206.738 88.3 206.638 88.1C206.598 88 206.598 87.93 206.638 87.89C206.698 87.83 206.768 87.8 206.848 87.8C206.968 87.8 207.168 87.81 207.448 87.83C207.748 87.83 208.038 87.84 208.318 87.86C208.598 87.86 208.758 87.86 208.798 87.86C208.898 87.86 208.948 87.94 208.948 88.1C208.888 88.84 208.848 89.49 208.828 90.05C208.828 90.59 208.828 91.22 208.828 91.94V112.55C208.828 112.85 208.808 113.03 208.768 113.09C208.748 113.15 208.688 113.19 208.588 113.21L207.058 113.3Z" fill="white"/>
<rect x="102" y="70" width="60" height="60" rx="10" fill="#432D2D" fill-opacity="0.76"/>
<path d="M119.684 105.74C119.464 105.74 119.324 105.73 119.264 105.71C119.204 105.67 119.144 105.57 119.084 105.41C119.004 105.19 118.934 104.99 118.874 104.81C118.834 104.61 118.774 104.34 118.694 104C118.674 103.96 118.684 103.91 118.724 103.85C118.764 103.79 118.834 103.77 118.934 103.79C119.254 103.83 119.664 103.87 120.164 103.91C120.664 103.95 121.324 103.96 122.144 103.94C122.104 102.76 122.074 101.64 122.054 100.58C122.054 99.52 122.024 98.44 121.964 97.34C121.864 95.84 121.694 94.86 121.454 94.4C121.414 94.3 121.414 94.23 121.454 94.19C121.514 94.13 121.584 94.1 121.664 94.1H123.614C123.734 94.12 123.794 94.22 123.794 94.4C123.774 94.76 123.764 95.12 123.764 95.48C123.764 95.84 123.764 96.24 123.764 96.68C123.764 96.84 123.764 97.01 123.764 97.19C123.764 97.35 123.764 97.53 123.764 97.73L123.734 103.91C124.874 103.87 126.074 103.78 127.334 103.64C127.374 102.62 127.424 101.6 127.484 100.58C127.544 99.54 127.594 98.46 127.634 97.34C127.674 96.62 127.664 95.94 127.604 95.3C127.564 94.66 127.494 94.24 127.394 94.04C127.314 93.86 127.384 93.77 127.604 93.77C127.724 93.77 127.924 93.78 128.204 93.8C128.504 93.8 128.794 93.81 129.074 93.83C129.354 93.83 129.514 93.83 129.554 93.83C129.694 93.85 129.744 93.95 129.704 94.13C129.664 94.67 129.624 95.11 129.584 95.45C129.544 95.79 129.514 96.12 129.494 96.44C129.474 96.76 129.444 97.16 129.404 97.64L129.014 103.4C130.254 103.22 131.474 102.98 132.674 102.68C132.814 102.62 132.904 102.67 132.944 102.83L133.034 103.67C133.034 103.85 133.004 103.97 132.944 104.03C132.904 104.07 132.814 104.12 132.674 104.18C132.134 104.34 131.364 104.5 130.364 104.66C129.384 104.82 128.314 104.97 127.154 105.11C125.994 105.23 124.884 105.33 123.824 105.41C123.104 105.45 122.514 105.49 122.054 105.53C121.614 105.57 121.214 105.61 120.854 105.65C120.514 105.67 120.124 105.7 119.684 105.74ZM135.044 112.52C134.964 112.52 134.924 112.47 134.924 112.37V98.48L133.904 98.51C133.424 98.53 132.954 98.57 132.494 98.63C132.034 98.67 131.564 98.71 131.084 98.75C130.864 98.77 130.724 98.76 130.664 98.72C130.624 98.68 130.594 98.61 130.574 98.51C130.554 98.49 130.544 98.47 130.544 98.45L130.304 97.19C130.264 97.03 130.334 96.96 130.514 96.98C130.994 97.06 131.654 97.09 132.494 97.07C133.354 97.05 134.164 97.02 134.924 96.98V92.24C134.924 91.48 134.904 90.78 134.864 90.14C134.824 89.5 134.754 89.08 134.654 88.88C134.614 88.78 134.614 88.71 134.654 88.67C134.714 88.61 134.784 88.58 134.864 88.58L136.634 88.61C136.734 88.65 136.784 88.73 136.784 88.85C136.744 89.43 136.724 89.95 136.724 90.41C136.724 90.87 136.724 91.35 136.724 91.85C136.724 91.97 136.724 92.1 136.724 92.24C136.724 92.38 136.724 92.53 136.724 92.69V111.77C136.724 112.07 136.704 112.25 136.664 112.31C136.644 112.37 136.584 112.41 136.484 112.43C136.424 112.43 136.284 112.44 136.064 112.46C135.864 112.46 135.664 112.47 135.464 112.49C135.264 112.51 135.124 112.52 135.044 112.52ZM139.424 113.3C139.344 113.3 139.304 113.25 139.304 113.15V91.46C139.304 90.7 139.284 90 139.244 89.36C139.224 88.72 139.164 88.3 139.064 88.1C139.024 88 139.024 87.93 139.064 87.89C139.124 87.83 139.194 87.8 139.274 87.8L141.044 87.83C141.144 87.87 141.194 87.95 141.194 88.07C141.154 88.67 141.124 89.21 141.104 89.69C141.104 90.17 141.104 90.67 141.104 91.19C141.104 91.31 141.104 91.43 141.104 91.55C141.104 91.67 141.104 91.79 141.104 91.91V112.55C141.104 112.85 141.084 113.03 141.044 113.09C141.024 113.15 140.964 113.19 140.864 113.21C140.804 113.21 140.664 113.21 140.444 113.21C140.244 113.23 140.044 113.25 139.844 113.27C139.644 113.29 139.504 113.3 139.424 113.3ZM120.104 93.17C119.904 93.19 119.774 93.17 119.714 93.11C119.654 93.03 119.604 92.94 119.564 92.84C119.544 92.82 119.534 92.8 119.534 92.78C119.454 92.56 119.394 92.39 119.354 92.27C119.314 92.13 119.254 91.89 119.174 91.55C119.154 91.51 119.164 91.46 119.204 91.4C119.244 91.34 119.314 91.31 119.414 91.31C119.814 91.31 120.234 91.33 120.674 91.37C121.134 91.39 121.824 91.4 122.744 91.4C123.864 91.36 124.974 91.31 126.074 91.25C127.194 91.19 128.214 91.12 129.134 91.04C130.074 90.94 130.834 90.85 131.414 90.77C131.474 90.75 131.544 90.76 131.624 90.8C131.704 90.82 131.754 90.88 131.774 90.98C131.814 91.12 131.854 91.33 131.894 91.61C131.934 91.87 131.964 92.11 131.984 92.33C132.024 92.55 131.904 92.66 131.624 92.66C131.244 92.64 130.884 92.63 130.544 92.63C130.224 92.63 129.864 92.63 129.464 92.63C129.024 92.63 128.464 92.64 127.784 92.66C127.104 92.68 126.404 92.71 125.684 92.75C124.984 92.79 124.354 92.83 123.794 92.87C123.254 92.89 122.884 92.91 122.684 92.93L120.104 93.17Z" fill="white"/>
<rect x="238" y="70" width="60" height="60" rx="10" fill="#432D2D" fill-opacity="0.76"/>
<path d="M255.895 106.37C255.795 106.29 255.655 106.19 255.475 106.07C255.315 105.93 255.185 105.81 255.085 105.71C254.965 105.57 254.975 105.46 255.115 105.38C257.115 103.96 258.685 102.48 259.825 100.94C260.985 99.4 261.815 97.9 262.315 96.44C262.835 94.96 263.135 93.64 263.215 92.48C262.695 92.52 262.245 92.55 261.865 92.57C261.485 92.59 261.225 92.6 261.085 92.6L257.785 92.9C257.585 92.92 257.455 92.9 257.395 92.84C257.335 92.76 257.285 92.67 257.245 92.57C257.225 92.55 257.215 92.53 257.215 92.51C257.135 92.29 257.075 92.1 257.035 91.94C257.015 91.76 256.965 91.5 256.885 91.16C256.865 91.02 256.945 90.95 257.125 90.95C257.685 90.99 258.205 91.02 258.685 91.04C259.185 91.04 259.915 91.04 260.875 91.04C261.955 91.04 262.925 91.02 263.785 90.98C264.665 90.94 265.475 90.89 266.215 90.83C266.995 90.77 267.625 90.72 268.105 90.68C268.605 90.64 269.035 90.6 269.395 90.56C269.775 90.5 270.175 90.45 270.595 90.41C270.655 90.41 270.725 90.42 270.805 90.44C270.885 90.46 270.935 90.52 270.955 90.62C270.975 90.74 270.995 90.88 271.015 91.04C271.055 91.2 271.085 91.36 271.105 91.52L271.165 92.06C271.205 92.28 271.085 92.39 270.805 92.39C270.425 92.37 269.995 92.36 269.515 92.36C269.055 92.36 268.625 92.36 268.225 92.36C267.885 92.36 267.475 92.37 266.995 92.39C266.535 92.39 266.035 92.4 265.495 92.42C265.375 94.02 264.895 95.74 264.055 97.58C265.015 98.26 265.975 98.98 266.935 99.74C267.895 100.48 268.765 101.19 269.545 101.87C270.325 102.53 270.925 103.1 271.345 103.58C271.425 103.68 271.485 103.8 271.525 103.94C271.585 104.06 271.565 104.19 271.465 104.33C271.285 104.55 271.075 104.75 270.835 104.93C270.615 105.09 270.395 105.26 270.175 105.44C270.055 105.54 269.955 105.52 269.875 105.38C269.595 104.94 269.205 104.43 268.705 103.85C268.225 103.27 267.675 102.68 267.055 102.08C266.455 101.46 265.835 100.87 265.195 100.31C264.575 99.75 263.985 99.26 263.425 98.84C262.725 100.1 261.835 101.36 260.755 102.62C259.675 103.88 258.375 105.09 256.855 106.25C256.835 106.27 256.805 106.29 256.765 106.31C256.625 106.41 256.495 106.48 256.375 106.52C256.255 106.54 256.095 106.49 255.895 106.37ZM274.405 113.3C274.325 113.3 274.285 113.25 274.285 113.15V91.49C274.285 90.73 274.255 90.03 274.195 89.39C274.155 88.73 274.085 88.3 273.985 88.1C273.945 88 273.945 87.93 273.985 87.89C274.045 87.83 274.115 87.8 274.195 87.8C274.315 87.8 274.515 87.81 274.795 87.83C275.095 87.83 275.385 87.84 275.665 87.86C275.945 87.86 276.105 87.86 276.145 87.86C276.245 87.86 276.295 87.94 276.295 88.1C276.235 88.84 276.195 89.49 276.175 90.05C276.175 90.59 276.175 91.22 276.175 91.94V112.55C276.175 112.85 276.155 113.03 276.115 113.09C276.095 113.15 276.035 113.19 275.935 113.21L274.405 113.3Z" fill="white"/>
<rect x="272" width="60" height="60" rx="10" fill="#E8E4DE"/>
<rect x="306" y="70" width="60" height="60" rx="10" fill="#E8E4DE"/>
<rect x="340" width="60" height="60" rx="10" fill="#E8E4DE"/>
<rect x="68" width="60" height="60" rx="10" fill="#E8E4DE"/>
<rect x="34" y="70" width="60" height="60" rx="10" fill="#E8E4DE"/>
<rect width="60" height="60" rx="10" fill="#E8E4DE"/>
</svg>
