<svg width="400" height="60" viewBox="0 0 400 60" fill="none" xmlns="http://www.w3.org/2000/svg">
<rect x="136" width="60" height="60" rx="10" fill="#432D2D" fill-opacity="0.76"/>
<path d="M162.472 27.79C161.392 27.83 160.402 27.68 159.502 27.34C158.602 26.98 157.872 26.45 157.312 25.75C156.772 25.05 156.502 24.22 156.502 23.26C156.502 22.36 156.762 21.56 157.282 20.86C157.822 20.16 158.542 19.61 159.442 19.21C160.362 18.79 161.382 18.57 162.502 18.55C163.622 18.51 164.632 18.66 165.532 19C166.452 19.34 167.172 19.85 167.692 20.53C168.232 21.21 168.502 22.04 168.502 23.02C168.502 23.96 168.222 24.78 167.662 25.48C167.122 26.18 166.392 26.73 165.472 27.13C164.572 27.53 163.572 27.75 162.472 27.79ZM173.212 38.65C173.132 38.65 173.092 38.6 173.092 38.5V34.48L170.662 34.66L167.092 35.02C166.892 35.04 166.762 35.03 166.702 34.99C166.662 34.95 166.622 34.88 166.582 34.78C166.562 34.76 166.552 34.74 166.552 34.72L166.312 33.52C166.312 33.48 166.322 33.43 166.342 33.37C166.362 33.31 166.422 33.29 166.522 33.31C166.782 33.35 167.172 33.37 167.692 33.37C168.212 33.37 168.792 33.36 169.432 33.34C170.072 33.3 170.712 33.26 171.352 33.22C172.012 33.18 172.592 33.14 173.092 33.1V21.46C173.092 20.7 173.062 20 173.002 19.36C172.962 18.72 172.892 18.3 172.792 18.1C172.752 18 172.752 17.93 172.792 17.89C172.852 17.83 172.922 17.8 173.002 17.8C173.282 17.8 173.612 17.8 173.992 17.8C174.392 17.8 174.712 17.81 174.952 17.83C175.052 17.83 175.102 17.91 175.102 18.07C175.042 18.81 175.002 19.46 174.982 20.02C174.982 20.56 174.982 21.19 174.982 21.91V37.9C174.982 38.2 174.962 38.38 174.922 38.44C174.902 38.5 174.842 38.54 174.742 38.56L173.212 38.65ZM162.502 26.44C163.242 26.44 163.922 26.3 164.542 26.02C165.182 25.74 165.702 25.34 166.102 24.82C166.502 24.3 166.702 23.7 166.702 23.02C166.702 22.32 166.502 21.73 166.102 21.25C165.702 20.77 165.172 20.41 164.512 20.17C163.872 19.91 163.192 19.8 162.472 19.84C161.752 19.86 161.072 20.02 160.432 20.32C159.792 20.6 159.272 20.99 158.872 21.49C158.472 21.97 158.272 22.55 158.272 23.23C158.272 23.87 158.462 24.44 158.842 24.94C159.242 25.44 159.762 25.82 160.402 26.08C161.042 26.34 161.742 26.46 162.502 26.44ZM159.202 37.93L158.152 37.69C158.052 37.65 158.002 37.6 158.002 37.54C158.022 37.46 158.052 37.4 158.092 37.36C158.532 36.86 158.912 36.27 159.232 35.59C159.572 34.89 159.842 34.19 160.042 33.49C160.262 32.77 160.412 32.15 160.492 31.63C160.392 31.65 160.292 31.67 160.192 31.69C160.112 31.69 160.022 31.69 159.922 31.69C158.842 31.77 157.802 31.84 156.802 31.9C155.822 31.96 155.002 32.02 154.342 32.08C154.122 32.1 153.982 32.09 153.922 32.05C153.862 32.01 153.802 31.9 153.742 31.72C153.662 31.5 153.592 31.3 153.532 31.12C153.492 30.92 153.432 30.66 153.352 30.34C153.332 30.3 153.342 30.25 153.382 30.19C153.422 30.13 153.492 30.11 153.592 30.13C153.992 30.19 154.742 30.23 155.842 30.25C156.942 30.27 158.142 30.26 159.442 30.22C160.702 30.16 162.012 30.08 163.372 29.98C164.732 29.86 166.042 29.71 167.302 29.53C168.562 29.33 169.672 29.12 170.632 28.9C170.792 28.86 170.882 28.91 170.902 29.05L171.052 29.8C171.092 29.98 171.072 30.11 170.992 30.19C170.932 30.25 170.842 30.3 170.722 30.34C170.142 30.48 169.392 30.62 168.472 30.76C167.572 30.9 166.592 31.03 165.532 31.15C164.492 31.25 163.462 31.35 162.442 31.45C162.282 32.51 161.992 33.62 161.572 34.78C161.172 35.92 160.662 36.89 160.042 37.69C159.882 37.91 159.602 37.99 159.202 37.93ZM163.552 44.5C162.852 44.5 162.332 44.25 161.992 43.75C161.652 43.27 161.482 42.6 161.482 41.74V40.21C161.482 39.57 161.442 39.03 161.362 38.59C161.302 38.13 161.242 37.8 161.182 37.6C161.122 37.4 161.192 37.3 161.392 37.3C161.492 37.3 161.682 37.31 161.962 37.33C162.262 37.33 162.542 37.34 162.802 37.36C163.082 37.38 163.242 37.39 163.282 37.39C163.382 37.41 163.432 37.51 163.432 37.69C163.412 38.15 163.392 38.55 163.372 38.89C163.372 39.23 163.372 39.63 163.372 40.09V41.68C163.372 42.26 163.442 42.62 163.582 42.76C163.722 42.9 163.942 42.97 164.242 42.97C164.802 42.99 165.472 43 166.252 43C167.032 43.02 167.842 43.02 168.682 43C169.542 42.98 170.372 42.95 171.172 42.91C172.012 42.87 172.882 42.8 173.782 42.7C174.682 42.58 175.372 42.46 175.852 42.34C176.052 42.3 176.182 42.31 176.242 42.37C176.302 42.43 176.342 42.51 176.362 42.61L176.602 44.02C176.602 44.12 176.572 44.2 176.512 44.26C176.472 44.32 176.312 44.35 176.032 44.35C174.052 44.35 172.062 44.37 170.062 44.41C168.062 44.47 165.892 44.5 163.552 44.5Z" fill="white"/>
<rect x="68" width="60" height="60" rx="10" fill="#432D2D" fill-opacity="0.76"/>
<path d="M86.565 39.13C86.345 39.15 86.205 39.14 86.145 39.1C86.085 39.06 86.025 38.95 85.965 38.77C85.885 38.55 85.815 38.35 85.755 38.17C85.715 37.97 85.655 37.7 85.575 37.36C85.555 37.32 85.565 37.27 85.605 37.21C85.645 37.15 85.715 37.13 85.815 37.15C86.215 37.23 86.955 37.27 88.035 37.27C89.135 37.27 90.335 37.25 91.635 37.21L93.915 37.12L93.885 33.91C92.865 33.83 92.005 33.58 91.305 33.16C90.605 32.72 90.075 32.2 89.715 31.6C89.355 30.98 89.175 30.36 89.175 29.74C89.175 29.06 89.355 28.4 89.715 27.76C90.095 27.1 90.685 26.55 91.485 26.11C92.305 25.65 93.375 25.4 94.695 25.36C96.455 25.34 97.835 25.73 98.835 26.53C99.835 27.31 100.315 28.33 100.275 29.59C100.235 30.55 99.835 31.45 99.075 32.29C98.335 33.11 97.245 33.63 95.805 33.85L95.715 36.97C97.135 36.85 98.565 36.69 100.005 36.49C101.445 36.29 102.695 36.03 103.755 35.71C103.895 35.65 103.985 35.7 104.025 35.86L104.175 36.7C104.215 36.88 104.195 37 104.115 37.06C104.055 37.12 103.965 37.17 103.845 37.21C103.505 37.31 102.985 37.43 102.285 37.57C101.605 37.69 100.815 37.82 99.915 37.96C99.035 38.08 98.115 38.2 97.155 38.32C96.215 38.42 95.305 38.51 94.425 38.59C93.545 38.67 92.775 38.73 92.115 38.77C91.035 38.83 90.005 38.89 89.025 38.95C88.045 39.01 87.225 39.07 86.565 39.13ZM105.285 43.3C105.205 43.3 105.165 43.25 105.165 43.15V21.49C105.165 20.73 105.135 20.03 105.075 19.39C105.035 18.73 104.965 18.3 104.865 18.1C104.825 18 104.825 17.93 104.865 17.89C104.925 17.83 104.995 17.8 105.075 17.8C105.195 17.8 105.395 17.81 105.675 17.83C105.975 17.83 106.265 17.84 106.545 17.86C106.825 17.86 106.985 17.86 107.025 17.86C107.125 17.86 107.175 17.94 107.175 18.1C107.115 18.84 107.075 19.49 107.055 20.05C107.055 20.59 107.055 21.22 107.055 21.94V42.55C107.055 42.85 107.035 43.03 106.995 43.09C106.975 43.15 106.915 43.19 106.815 43.21L105.285 43.3ZM94.725 32.5C95.845 32.46 96.715 32.18 97.335 31.66C97.975 31.12 98.315 30.43 98.355 29.59C98.355 29.21 98.245 28.79 98.025 28.33C97.825 27.85 97.455 27.44 96.915 27.1C96.375 26.76 95.625 26.61 94.665 26.65C93.405 26.69 92.475 27.02 91.875 27.64C91.295 28.26 91.005 28.95 91.005 29.71C91.005 30.47 91.335 31.14 91.995 31.72C92.675 32.28 93.585 32.54 94.725 32.5ZM87.675 24.25C87.475 24.27 87.345 24.25 87.285 24.19C87.225 24.11 87.175 24.02 87.135 23.92C87.115 23.9 87.105 23.88 87.105 23.86C87.025 23.64 86.965 23.45 86.925 23.29C86.885 23.13 86.825 22.89 86.745 22.57C86.725 22.53 86.735 22.48 86.775 22.42C86.815 22.36 86.885 22.34 86.985 22.36C87.545 22.42 88.205 22.48 88.965 22.54C89.745 22.58 90.615 22.59 91.575 22.57C92.775 22.57 93.995 22.55 95.235 22.51C96.495 22.47 97.715 22.4 98.895 22.3C100.075 22.2 101.135 22.07 102.075 21.91C102.135 21.89 102.205 21.9 102.285 21.94C102.365 21.96 102.415 22.02 102.435 22.12C102.475 22.36 102.505 22.6 102.525 22.84C102.565 23.06 102.585 23.28 102.585 23.5C102.625 23.72 102.505 23.83 102.225 23.83C101.845 23.81 101.365 23.8 100.785 23.8C100.225 23.78 99.745 23.77 99.345 23.77C98.905 23.77 98.305 23.78 97.545 23.8C96.805 23.82 96.015 23.84 95.175 23.86C94.335 23.88 93.545 23.91 92.805 23.95C92.065 23.97 91.485 23.99 91.065 24.01C90.565 24.05 89.995 24.09 89.355 24.13C88.735 24.17 88.175 24.21 87.675 24.25ZM94.005 20.44C93.725 20.4 93.345 20.35 92.865 20.29C92.385 20.23 91.915 20.14 91.455 20.02C90.995 19.88 90.625 19.71 90.345 19.51C90.265 19.45 90.245 19.33 90.285 19.15C90.325 18.95 90.395 18.77 90.495 18.61C90.595 18.43 90.695 18.36 90.795 18.4C91.675 18.56 92.635 18.67 93.675 18.73C94.735 18.77 95.735 18.78 96.675 18.76C97.635 18.72 98.395 18.68 98.955 18.64C99.115 18.62 99.215 18.63 99.255 18.67C99.295 18.69 99.325 18.75 99.345 18.85C99.345 18.87 99.345 18.9 99.345 18.94C99.345 19.12 99.335 19.36 99.315 19.66C99.295 19.96 99.225 20.13 99.105 20.17C98.985 20.21 98.645 20.27 98.085 20.35C97.525 20.41 96.875 20.45 96.135 20.47C95.395 20.49 94.685 20.48 94.005 20.44Z" fill="white"/>
<rect x="204" width="60" height="60" rx="10" fill="#432D2D" fill-opacity="0.76"/>
<path d="M238.758 43.3C238.678 43.3 238.638 43.25 238.638 43.15V21.49C238.638 20.73 238.608 20.03 238.548 19.39C238.508 18.73 238.438 18.3 238.338 18.1C238.298 18 238.298 17.93 238.338 17.89C238.398 17.83 238.468 17.8 238.548 17.8C238.668 17.8 238.868 17.81 239.148 17.83C239.448 17.83 239.738 17.84 240.018 17.86C240.298 17.86 240.458 17.86 240.498 17.86C240.598 17.86 240.648 17.94 240.648 18.1C240.588 18.84 240.548 19.49 240.528 20.05C240.528 20.59 240.528 21.22 240.528 21.94V28.96C241.068 28.96 241.648 28.94 242.268 28.9C242.908 28.84 243.498 28.78 244.038 28.72C244.598 28.64 245.018 28.56 245.298 28.48C245.478 28.46 245.578 28.52 245.598 28.66C245.638 28.92 245.668 29.18 245.688 29.44C245.708 29.7 245.728 29.96 245.748 30.22C245.748 30.44 245.658 30.55 245.478 30.55C245.178 30.51 244.738 30.49 244.158 30.49C243.598 30.49 242.998 30.49 242.358 30.49C241.718 30.49 241.108 30.5 240.528 30.52V42.55C240.528 42.85 240.508 43.03 240.468 43.09C240.448 43.15 240.388 43.19 240.288 43.21L238.758 43.3ZM221.478 38.44L220.758 37.78C220.678 37.7 220.708 37.6 220.848 37.48C222.108 36.82 223.358 35.93 224.598 34.81C225.858 33.69 227.018 32.45 228.078 31.09C229.138 29.73 230.018 28.34 230.718 26.92C231.418 25.48 231.848 24.12 232.008 22.84C232.048 22.62 231.958 22.51 231.738 22.51L225.858 22.87L222.738 23.14C222.538 23.16 222.408 23.14 222.348 23.08C222.288 23 222.238 22.91 222.198 22.81C222.178 22.79 222.168 22.77 222.168 22.75C222.088 22.53 222.028 22.35 221.988 22.21C221.948 22.05 221.888 21.8 221.808 21.46C221.788 21.42 221.798 21.37 221.838 21.31C221.878 21.25 221.948 21.23 222.048 21.25C222.928 21.33 223.908 21.37 224.988 21.37C226.088 21.35 227.188 21.31 228.288 21.25C229.388 21.17 230.378 21.08 231.258 20.98C231.498 20.96 231.758 20.92 232.038 20.86C232.318 20.8 232.458 20.77 232.458 20.77C232.558 20.73 232.668 20.73 232.788 20.77L234.438 21.31C234.598 21.39 234.668 21.52 234.648 21.7L233.958 23.92C233.678 24.8 233.238 25.85 232.638 27.07C232.038 28.29 231.268 29.58 230.328 30.94C229.388 32.28 228.258 33.6 226.938 34.9C225.638 36.2 224.138 37.38 222.438 38.44C222.278 38.54 222.118 38.6 221.958 38.62C221.798 38.64 221.638 38.58 221.478 38.44Z" fill="white"/>
<rect x="272" width="60" height="60" rx="10" fill="#432D2D" fill-opacity="0.76"/>
<path d="M296.818 31.06C295.678 31.08 294.628 30.86 293.668 30.4C292.728 29.94 291.968 29.29 291.388 28.45C290.828 27.59 290.548 26.6 290.548 25.48C290.548 24.4 290.828 23.43 291.388 22.57C291.968 21.69 292.728 20.99 293.668 20.47C294.628 19.95 295.688 19.68 296.848 19.66C297.988 19.6 299.028 19.79 299.968 20.23C300.928 20.67 301.698 21.32 302.278 22.18C302.858 23.02 303.148 24.04 303.148 25.24C303.148 26.34 302.858 27.33 302.278 28.21C301.698 29.07 300.928 29.75 299.968 30.25C299.008 30.75 297.958 31.02 296.818 31.06ZM296.848 44.8C296.808 44.8 296.758 44.79 296.698 44.77C296.638 44.75 296.608 44.69 296.608 44.59C296.608 44.51 296.608 44.39 296.608 44.23C296.608 44.09 296.608 43.93 296.608 43.75C296.608 43.21 296.608 42.53 296.608 41.71C296.608 40.89 296.608 40.08 296.608 39.28C296.608 38.48 296.598 37.81 296.578 37.27C296.558 36.75 296.518 36.24 296.458 35.74C296.398 35.24 296.338 34.89 296.278 34.69C296.218 34.49 296.288 34.39 296.488 34.39L298.408 34.42C298.508 34.42 298.558 34.49 298.558 34.63C298.538 35.09 298.518 35.58 298.498 36.1C298.498 36.6 298.498 37.13 298.498 37.69C298.858 37.71 299.378 37.72 300.058 37.72C300.738 37.72 301.488 37.72 302.308 37.72C303.128 37.72 303.958 37.71 304.798 37.69C305.638 37.67 306.408 37.65 307.108 37.63C307.828 37.59 308.398 37.56 308.818 37.54V36.7C308.818 36.02 308.798 35.5 308.758 35.14C308.738 34.76 308.688 34.48 308.608 34.3C308.568 34.2 308.568 34.13 308.608 34.09C308.668 34.03 308.738 34 308.818 34H310.648C310.748 34 310.798 34.06 310.798 34.18C310.778 34.64 310.758 35.13 310.738 35.65C310.738 36.15 310.738 36.83 310.738 37.69V44.29C310.738 44.55 310.588 44.68 310.288 44.68L298.438 44.71C298.238 44.71 297.938 44.72 297.538 44.74C297.138 44.78 296.908 44.8 296.848 44.8ZM296.848 29.53C298.048 29.49 299.058 29.09 299.878 28.33C300.698 27.55 301.108 26.52 301.108 25.24C301.108 23.82 300.688 22.78 299.848 22.12C299.028 21.46 298.018 21.15 296.818 21.19C295.598 21.27 294.578 21.68 293.758 22.42C292.938 23.16 292.528 24.17 292.528 25.45C292.528 26.79 292.938 27.82 293.758 28.54C294.598 29.24 295.628 29.57 296.848 29.53ZM298.498 43C298.698 43.02 299.138 43.03 299.818 43.03C300.518 43.05 301.328 43.06 302.248 43.06C303.188 43.06 304.118 43.05 305.038 43.03C305.958 43.03 306.768 43.02 307.468 43C308.168 42.98 308.618 42.96 308.818 42.94V39.19C308.278 39.19 307.568 39.19 306.688 39.19C305.808 39.19 304.858 39.2 303.838 39.22C302.838 39.22 301.858 39.23 300.898 39.25C299.958 39.25 299.158 39.26 298.498 39.28V43ZM308.908 32.35C308.828 32.35 308.788 32.3 308.788 32.2V21.46C308.788 20.7 308.758 20 308.698 19.36C308.658 18.72 308.588 18.3 308.488 18.1C308.448 18 308.448 17.93 308.488 17.89C308.548 17.83 308.618 17.8 308.698 17.8C308.878 17.8 309.158 17.8 309.538 17.8C309.938 17.8 310.308 17.81 310.648 17.83C310.748 17.83 310.798 17.91 310.798 18.07C310.738 18.81 310.698 19.46 310.678 20.02C310.678 20.56 310.678 21.19 310.678 21.91V31.6C310.678 31.9 310.658 32.08 310.618 32.14C310.598 32.2 310.538 32.24 310.438 32.26L308.908 32.35Z" fill="white"/>
<rect width="60" height="60" rx="10" fill="#E8E4DE"/>
<rect x="340" width="60" height="60" rx="10" fill="#E8E4DE"/>
</svg>
