<svg width="60" height="60" viewBox="0 0 60 60" fill="none" xmlns="http://www.w3.org/2000/svg">
<path d="M47.8378 0H12.1622C5.44518 0 0 5.59644 0 12.5V47.5C0 54.4036 5.44518 60 12.1622 60H47.8378C54.5548 60 60 54.4036 60 47.5V12.5C60 5.59644 54.5548 0 47.8378 0Z" fill="#432D2D"/>
<path d="M23.488 30.8333C22.7315 30.8558 22.202 30.6441 21.8988 30.1999C21.5963 29.7557 21.4447 28.9999 21.4447 27.9332V22.5666C21.4447 21.7891 21.3912 21.1224 21.2825 20.5666C21.1747 19.9891 21.0669 19.5891 20.9582 19.3666C20.8934 19.2333 20.8934 19.1224 20.9582 19.0333C21.0231 18.9224 21.1098 18.8666 21.2177 18.8666C21.3693 18.8666 21.6393 18.8774 22.0285 18.8999C22.4177 18.9224 22.8288 18.9441 23.2609 18.9666C23.9963 18.9891 24.8825 18.9999 25.9204 18.9999C26.9582 18.9774 28.0609 18.9441 29.2285 18.8999C30.4179 18.8558 31.575 18.8108 32.6988 18.7666C33.975 18.7224 35.0777 18.6558 36.0069 18.5666C36.9369 18.4774 37.6828 18.3999 38.2447 18.3333C38.3096 18.3333 38.3858 18.3441 38.4717 18.3666C38.5585 18.3891 38.6128 18.4558 38.6339 18.5666L38.7312 19.4666C38.7531 19.5558 38.7636 19.6441 38.7636 19.7333C38.7636 19.7999 38.7636 19.8774 38.7636 19.9666C38.8074 20.2108 38.6777 20.3333 38.3744 20.3333C37.7696 20.3333 37.1858 20.3441 36.6231 20.3666C36.0612 20.3666 35.4669 20.3774 34.8393 20.3999L23.488 20.6999V27.5333C23.488 28.1999 23.5423 28.6333 23.6501 28.8333C23.7588 29.0333 23.9858 29.1441 24.3312 29.1666C24.872 29.1891 25.5531 29.1999 26.3744 29.1999C27.1966 29.1999 28.0504 29.1891 28.9366 29.1666C29.8236 29.1441 30.645 29.1224 31.4015 29.0999C32.1798 29.0558 32.775 29.0224 33.1852 28.9999C34.3528 28.9557 35.3696 28.8891 36.2339 28.7999C37.1209 28.7108 37.8344 28.6108 38.3744 28.4999C38.5909 28.4558 38.7312 28.4666 38.7961 28.5332C38.8609 28.5774 38.9047 28.6557 38.9258 28.7666C38.9696 29.0107 38.9907 29.2558 38.9907 29.4999C39.0125 29.7224 39.0344 29.9774 39.0555 30.2666C39.0555 30.3999 39.0125 30.4891 38.9258 30.5333C38.8609 30.5774 38.6777 30.5999 38.3744 30.5999C36.0612 30.5999 33.6182 30.6333 31.0447 30.6999C28.4939 30.7441 25.9747 30.7891 23.488 30.8333ZM17.8123 41.1666C17.5747 41.1891 17.4125 41.1666 17.3258 41.0999C17.2398 41.0333 17.175 40.9333 17.1312 40.7999C17.0452 40.5557 16.969 40.3107 16.9042 40.0666C16.8393 39.7999 16.7639 39.4774 16.6771 39.0999C16.6561 39.0558 16.6666 38.9999 16.7096 38.9332C16.7534 38.8441 16.8288 38.8108 16.9366 38.8333C17.7588 38.9441 18.8825 39.0224 20.3096 39.0666C21.7366 39.0891 23.3047 39.0999 25.0123 39.0999C25.7047 39.0999 26.4069 39.0999 27.1204 39.0999C27.8558 39.0999 28.6017 39.0891 29.3582 39.0666V36.2999C29.3582 35.4333 29.3258 34.6774 29.2609 34.0333C29.1961 33.3891 29.1207 32.9558 29.0339 32.7333C28.948 32.5108 29.0234 32.3999 29.2609 32.3999H31.2069C31.3366 32.3999 31.4015 32.4891 31.4015 32.6666C31.4015 32.6891 31.4015 32.7108 31.4015 32.7333C31.3585 33.3108 31.3261 33.8666 31.3042 34.3999C31.2831 34.9333 31.2717 35.4891 31.2717 36.0666L31.2393 39.0333C32.8828 38.9891 34.4615 38.9333 35.9744 38.8666C37.4882 38.7774 38.8504 38.6774 40.0609 38.5666C41.2723 38.4558 42.2015 38.3441 42.8501 38.2332C43.0666 38.1891 43.2069 38.1999 43.2717 38.2666C43.3366 38.3333 43.3804 38.4224 43.4015 38.5332L43.5961 40.1332C43.5961 40.2441 43.5636 40.3441 43.4988 40.4332C43.4339 40.5224 43.2612 40.5666 42.9798 40.5666C42.2452 40.5441 41.3906 40.5333 40.4177 40.5333C39.4447 40.5333 38.4069 40.5333 37.3042 40.5333C34.6017 40.5333 31.9852 40.5666 29.4555 40.6333C26.9258 40.6774 24.6555 40.7441 22.6447 40.8333C20.6339 40.9224 19.0236 41.0333 17.8123 41.1666Z" fill="#D9D9D9"/>
</svg>
